<?xml version="1.0" encoding="utf-8"?>
<!-- Generator: Adobe Illustrator 27.3.1, SVG Export Plug-In . SVG Version: 6.00 Build 0)  -->
<svg version="1.1" xmlns="http://www.w3.org/2000/svg" xmlns:xlink="http://www.w3.org/1999/xlink" x="0px" y="0px"
	 viewBox="0 0 283.5 283.5" style="enable-background:new 0 0 283.5 283.5;" xml:space="preserve">
<style type="text/css">
	.st0{fill:url(#SVGID_1_);}
	.st1{fill:#FFFFFF;}
	.st2{display:none;}
	.st3{display:inline;opacity:0.43;}
	.st4{font-family:'Barlow-Bold';}
	.st5{font-size:32px;}
	.st6{font-size:32.0001px;}
	.st7{font-family:'Barlow-Medium';}
	.st8{font-size:17.3334px;}
	.st9{font-size:17.3333px;}
</style>
<g id="Illustration">
	<circle cx="141.7" cy="141.7" r="141.7"/>
	
		<linearGradient id="SVGID_1_" gradientUnits="userSpaceOnUse" x1="126.7482" y1="215.6849" x2="157.8522" y2="69.3521" gradientTransform="matrix(0.7071 0.7071 -0.7071 0.7071 140.8527 -58.9935)">
		<stop  offset="0.1028" style="stop-color:#FFFFFF"/>
		<stop  offset="0.171" style="stop-color:#F7F7F7"/>
		<stop  offset="0.2777" style="stop-color:#E1E1E1"/>
		<stop  offset="0.4097" style="stop-color:#BCBCBC"/>
		<stop  offset="0.5619" style="stop-color:#898989"/>
		<stop  offset="0.7309" style="stop-color:#494948"/>
		<stop  offset="0.9" style="stop-color:#000000"/>
	</linearGradient>
	<path class="st0" d="M88.9,194.6C74.7,180.5,67,161.7,67,141.7c0-20,7.8-38.8,21.9-52.9S121.8,67,141.7,67c20,0,38.8,7.8,52.9,21.9
		s21.9,32.9,21.9,52.9c0,20-7.8,38.8-21.9,52.9c-14.1,14.1-32.9,21.9-52.9,21.9C121.8,216.5,103,208.7,88.9,194.6z M192.5,90.9
		c-28-28-73.6-28-101.6,0c-28,28-28,73.6,0,101.6c28,28,73.6,28,101.6,0C220.5,164.5,220.5,118.9,192.5,90.9z"/>
	<path class="st1" d="M53.7,229.6c-2.5-2.5-0.5-7.1,2.7-14.7c2.2-5.2,5-11.6,7.2-19.4c4.1-14.2,5.4-29.2,3.9-44.8l2.9-0.3
		c1.5,15.9,0.1,31.3-4,45.9c-2.3,8-5.1,14.5-7.3,19.7c-2.3,5.3-4.4,10.3-3.3,11.4c0,0,0,0,0,0c0.4,0.4,2.4,1.2,10.5-3.5
		c5.7-3.3,12.8-8.3,19.6-13.1c16-11.3,34.9-27.5,56.1-48.2c3.5-3.4,7.2-7,10.6-10.5l2.1,2.1c-3.4,3.4-7.1,7.1-10.6,10.5
		c-21.4,20.8-40.4,37.1-56.5,48.5c-18.1,12.8-29.5,20.3-33.8,16.4C53.7,229.7,53.7,229.7,53.7,229.6z"/>
	<path class="st1" d="M165.1,189.7l32.4-58.1c3.3-5.9,6.8-11.6,10.7-17l36.1-51.4c0.2-0.3-0.1-0.6-0.4-0.4l-51.4,36.1
		c-5.5,3.9-11.2,7.4-17,10.7l-58.1,32.4c-0.3,0.2-0.1,0.6,0.2,0.5l37.9-10.2l2.1,2.1l-6.2,1.7l1.5,5.7l-3.5,2.1l1.4,1.4L148,148
		l5.5,5.5l5.5,5.5l2.8-2.7l1.4,1.4l2.1-3.5l5.7,1.5l1.7-6.2l2.1,2.1l-10.2,37.9C164.4,189.8,164.9,190,165.1,189.7z"/>
</g>
<g id="Text_Vorlage" class="st2">
	<g class="st3">
		<text transform="matrix(-0.4008 -0.9162 0.9162 -0.4008 55.6665 191.361)" class="st1 st4 st5">C</text>
		<text transform="matrix(-0.2127 -0.9771 0.9771 -0.2127 47.4861 172.872)" class="st1 st4 st5">O</text>
		<text transform="matrix(-1.265000e-02 -0.9999 0.9999 -1.265000e-02 43.1512 152.823)" class="st1 st4 st6">S</text>
		<text transform="matrix(0.1882 -0.9821 0.9821 0.1882 42.8924 133.3737)" class="st1 st4 st6">M</text>
		<text transform="matrix(0.3554 -0.9347 0.9347 0.3554 47.9315 110.6954)" class="st1 st4 st5">I</text>
		<text transform="matrix(0.488 -0.8729 0.8729 0.488 50.7473 102.1465)" class="st1 st4 st5">C</text>
		<text transform="matrix(0.6084 -0.7936 0.7936 0.6084 60.9524 84.8223)" class="st1 st4 st6"> </text>
		<text transform="matrix(0.6986 -0.7155 0.7155 0.6986 64.9826 79.0476)" class="st1 st4 st5">C</text>
		<text transform="matrix(0.8353 -0.5498 0.5498 0.8353 79.0321 64.5929)" class="st1 st4 st6">O</text>
		<text transform="matrix(0.9257 -0.3782 0.3782 0.9257 95.7199 53.701)" class="st1 st4 st6">A</text>
		<text transform="matrix(0.9865 -0.1635 0.1635 0.9865 115.9777 45.59)" class="st1 st4 st5">S</text>
		<text transform="matrix(0.9993 3.797000e-02 -3.797000e-02 0.9993 135.4226 42.2896)" class="st1 st4 st6">T</text>
		<text transform="matrix(0.9771 0.2127 -0.2127 0.9771 154.6982 43.0014)" class="st1 st4 st5">E</text>
		<text transform="matrix(0.9162 0.4008 -0.4008 0.9162 173.5112 47.2331)" class="st1 st4 st5">R</text>
		<text transform="matrix(0.8079 0.5893 -0.5893 0.8079 192.1454 55.3913)" class="st1 st4 st6">S</text>
		<text transform="matrix(0.8955 0.445 -0.445 0.8955 85.6596 240.3972)" class="st1 st7 st8">P</text>
		<text transform="matrix(0.9347 0.3554 -0.3554 0.9347 96.7226 245.7863)" class="st1 st7 st9">O</text>
		<text transform="matrix(0.9771 0.2127 -0.2127 0.9771 108.2867 250.5231)" class="st1 st7 st8">W</text>
		<text transform="matrix(0.9961 8.845000e-02 -8.845000e-02 0.9961 125.0052 254.0822)" class="st1 st7 st9">E</text>
		<text transform="matrix(0.9999 -1.265000e-02 1.265000e-02 0.9999 136.9498 255.3107)" class="st1 st7 st8">R</text>
		<text transform="matrix(0.9935 -0.1136 0.1136 0.9935 149.3405 255.1358)" class="st1 st7 st8">E</text>
		<text transform="matrix(0.9771 -0.2127 0.2127 0.9771 161.326 253.6628)" class="st1 st7 st8">D</text>
		<text transform="matrix(0.9585 -0.2851 0.2851 0.9585 173.3814 250.8807)" class="st1 st7 st8"> </text>
		<text transform="matrix(0.9257 -0.3782 0.3782 0.9257 178.4071 249.5065)" class="st1 st7 st8">B</text>
		<text transform="matrix(0.8844 -0.4667 0.4667 0.8844 189.8821 244.8689)" class="st1 st7 st8">Y</text>
		<text transform="matrix(0.8483 -0.5295 0.5295 0.8483 200.3031 239.3273)" class="st1 st7 st9"> </text>
		<text transform="matrix(0.8079 -0.5893 0.5893 0.8079 204.7015 236.5873)" class="st1 st7 st9">F</text>
		<text transform="matrix(0.7319 -0.6814 0.6814 0.7319 214.2703 229.7)" class="st1 st7 st9">H</text>
		<text transform="matrix(0.6814 -0.7319 0.7319 0.6814 223.6474 220.8051)" class="st1 st7 st9"> </text>
		<text transform="matrix(0.6273 -0.7788 0.7788 0.6273 227.2239 217.1105)" class="st1 st7 st8">C</text>
		<text transform="matrix(0.5295 -0.8483 0.8483 0.5295 234.947 207.5821)" class="st1 st7 st9">A</text>
		<text transform="matrix(0.4231 -0.9061 0.9061 0.4231 241.748 196.7735)" class="st1 st7 st9">M</text>
		<text transform="matrix(0.3322 -0.9432 0.9432 0.3322 247.6152 184.1901)" class="st1 st7 st8">P</text>
		<text transform="matrix(0.2127 -0.9771 0.9771 0.2127 251.5399 172.6431)" class="st1 st7 st8">U</text>
		<text transform="matrix(0.1136 -0.9935 0.9935 0.1136 254.2981 160.048)" class="st1 st7 st8">S</text>
		<text transform="matrix(3.797000e-02 -0.9993 0.9993 3.797000e-02 255.4815 148.1898)" class="st1 st7 st9"> </text>
		<text transform="matrix(-6.325001e-02 -0.998 0.998 -6.325001e-02 255.9891 142.9565)" class="st1 st7 st8">W</text>
		<text transform="matrix(-0.1635 -0.9865 0.9865 -0.1635 254.5434 126.0497)" class="st1 st7 st8">I</text>
		<text transform="matrix(-0.2371 -0.9715 0.9715 -0.2371 253.653 119.9591)" class="st1 st7 st8">E</text>
		<text transform="matrix(-0.3322 -0.9432 0.9432 -0.3322 250.7399 108.3374)" class="st1 st7 st8">N</text>
	</g>
</g>
<g id="Text_groß">
	<g>
		<path class="st1" d="M54.3,185.8c-0.1,1.4-0.5,2.6-1.3,3.7c-0.8,1.1-1.8,1.9-3.2,2.5l-7.3,3.3c-1.4,0.6-2.7,0.9-4,0.7
			c-1.3-0.1-2.5-0.6-3.6-1.5c-1.1-0.9-1.9-2-2.6-3.5c-0.7-1.4-1-2.9-0.9-4.2c0-1.4,0.4-2.6,1.2-3.6s1.7-1.9,3.1-2.5
			c0.2-0.1,0.4,0,0.6,0.3l1.3,2.4l0.1,0.1c0.1,0.2,0.1,0.4,0,0.4l-0.2,0.1c-1.2,0.5-1.9,1.3-2.3,2.3c-0.4,1-0.3,2.1,0.2,3.3
			s1.3,2,2.4,2.4c1,0.4,2.1,0.3,3.3-0.2l7.5-3.4c1.1-0.5,1.9-1.3,2.3-2.3c0.4-1,0.3-2.2-0.2-3.4c-0.5-1.2-1.3-2-2.3-2.4
			c-1-0.4-2.1-0.3-3.3,0.2c-0.1,0-0.2,0-0.3,0c-0.1-0.1-0.2-0.2-0.2-0.3l-1-2.5c-0.1-0.3-0.1-0.5-0.1-0.5l0.1-0.1
			c1.3-0.6,2.6-0.8,3.9-0.7c1.3,0.2,2.5,0.7,3.5,1.5s1.9,2,2.6,3.5C54.1,183,54.4,184.4,54.3,185.8z"/>
		<path class="st1" d="M47.2,166.9c-0.4,1.4-1.1,2.5-2.1,3.4c-1,0.9-2.3,1.5-3.8,1.9l-7.2,1.6c-1.5,0.3-2.9,0.3-4.2-0.1
			c-1.3-0.4-2.4-1.2-3.3-2.2c-0.9-1.1-1.5-2.4-1.9-4c-0.3-1.6-0.3-3.1,0-4.4c0.4-1.3,1.1-2.5,2.1-3.4s2.3-1.6,3.8-1.9l7.2-1.6
			c1.5-0.3,3-0.3,4.3,0.1c1.3,0.4,2.4,1.2,3.3,2.2c0.9,1.1,1.5,2.4,1.9,4C47.6,164.1,47.5,165.6,47.2,166.9z M42.1,160.3
			c-1-0.6-2.2-0.8-3.5-0.5l-7.3,1.6c-1.4,0.3-2.4,0.9-3,1.9c-0.6,1-0.8,2.1-0.5,3.4c0.3,1.3,0.9,2.3,1.9,2.9c1,0.6,2.2,0.8,3.5,0.5
			l7.3-1.6c1.3-0.3,2.3-0.9,3-1.9c0.6-1,0.8-2.1,0.5-3.4C43.8,161.9,43.1,160.9,42.1,160.3z"/>
		<path class="st1" d="M44.2,147c-0.5,1.2-1.3,2.2-2.2,2.9c-1,0.7-2.1,1-3.4,1.1l-0.7,0c-0.3,0-0.5-0.2-0.5-0.5l0-2.6
			c0-0.3,0.2-0.5,0.5-0.5l0.5,0c1,0,1.8-0.5,2.4-1.3c0.6-0.9,1-2,0.9-3.5c0-1.3-0.3-2.3-0.9-3c-0.6-0.7-1.3-1-2.2-1
			c-0.6,0-1.1,0.2-1.5,0.6c-0.4,0.4-0.8,0.9-1.1,1.6c-0.3,0.7-0.7,1.7-1.2,3.1c-0.5,1.5-1,2.8-1.5,3.7c-0.5,1-1.1,1.8-2,2.4
			c-0.8,0.6-1.9,1-3.2,1c-1.9,0-3.4-0.6-4.5-2s-1.7-3.2-1.7-5.5c0-1.6,0.2-3,0.8-4.3c0.5-1.2,1.3-2.2,2.3-2.9c1-0.7,2.1-1.1,3.4-1.1
			l0.4,0c0.3,0,0.5,0.2,0.5,0.5l0,2.6c0,0.2,0,0.3-0.1,0.4c-0.1,0.1-0.2,0.1-0.3,0.1l-0.4,0c-1,0-1.9,0.4-2.5,1.3
			c-0.7,0.8-1,2-1,3.4c0,1.2,0.3,2.1,0.8,2.7c0.5,0.6,1.2,1,2.1,0.9c0.6,0,1.2-0.2,1.6-0.5c0.4-0.3,0.8-0.9,1.1-1.6
			c0.3-0.7,0.7-1.8,1.2-3.2c0.6-1.5,1.1-2.8,1.5-3.7c0.5-0.9,1.1-1.7,1.9-2.4c0.8-0.7,1.9-1,3.2-1c1.2,0,2.4,0.3,3.3,0.9
			c1,0.6,1.7,1.5,2.3,2.7c0.5,1.2,0.8,2.6,0.9,4.2C44.9,144.3,44.7,145.8,44.2,147z"/>
		<path class="st1" d="M44.4,130l-21.1-4.5c-0.3-0.1-0.5-0.3-0.4-0.6l0.6-2.7c0.1-0.3,0.2-0.5,0.5-0.6l9-3.2c0.1,0,0.1-0.1,0.1-0.1
			s0-0.1-0.1-0.1l-6.9-6.7c-0.2-0.2-0.3-0.4-0.2-0.7l0.6-2.6c0.1-0.3,0.3-0.5,0.6-0.4l21.1,4.5c0.3,0.1,0.5,0.3,0.4,0.6l-0.6,2.6
			c-0.1,0.3-0.3,0.5-0.6,0.4l-14.9-3.2c-0.1,0-0.1,0-0.2,0c0,0,0,0.1,0.1,0.2l5.3,5.1c0.2,0.2,0.3,0.4,0.2,0.7l-0.3,1.2
			c-0.1,0.3-0.2,0.5-0.5,0.6l-7,2.4c-0.1,0-0.1,0.1-0.1,0.1c0,0.1,0.1,0.1,0.1,0.1l14.9,3.2c0.3,0.1,0.5,0.3,0.4,0.6l-0.6,2.6
			C44.9,130,44.7,130.1,44.4,130z"/>
		<path class="st1" d="M50.5,107l-20-8.1c-0.3-0.1-0.4-0.4-0.3-0.7l1-2.5c0.1-0.3,0.4-0.4,0.7-0.3l20,8.1c0.3,0.1,0.4,0.4,0.3,0.7
			l-1,2.5C51,107,50.8,107.1,50.5,107z"/>
		<path class="st1" d="M55.6,95.2c-1.2,0.7-2.4,1.1-3.7,1.1c-1.3,0-2.6-0.4-3.9-1.2L41.1,91c-1.3-0.8-2.3-1.7-2.9-2.9
			c-0.6-1.2-0.9-2.4-0.8-3.8c0.1-1.4,0.6-2.7,1.4-4.1c0.8-1.4,1.8-2.4,2.9-3.2c1.1-0.7,2.4-1.1,3.6-1.1c1.3,0,2.5,0.4,3.8,1.1
			c0.2,0.1,0.2,0.3,0.1,0.6L48,80l-0.1,0.1c-0.1,0.2-0.2,0.3-0.3,0.2l-0.2-0.1c-1.1-0.7-2.2-0.8-3.2-0.6c-1.1,0.3-1.9,1-2.6,2.1
			s-0.9,2.2-0.6,3.3c0.3,1.1,0.9,1.9,2,2.6L50,92c1.1,0.6,2.1,0.8,3.2,0.5c1.1-0.3,1.9-1,2.6-2.1c0.7-1.1,0.9-2.2,0.6-3.3
			c-0.3-1.1-0.9-1.9-2-2.6c-0.1-0.1-0.1-0.1-0.2-0.3s0-0.2,0.1-0.4l1.5-2.3c0.2-0.3,0.3-0.4,0.4-0.4l0.1,0.1
			c1.3,0.8,2.2,1.7,2.8,2.8c0.6,1.1,0.9,2.4,0.7,3.8c-0.1,1.4-0.6,2.7-1.4,4.1C57.8,93.4,56.8,94.5,55.6,95.2z"/>
		<path class="st1" d="M72.2,72.8c-1.3,0.4-2.6,0.4-3.9,0c-1.3-0.4-2.4-1.1-3.4-2.2l-5.4-5.8c-1-1.1-1.7-2.3-2-3.6
			c-0.3-1.3-0.2-2.6,0.3-3.9c0.5-1.3,1.3-2.5,2.5-3.6c1.2-1.1,2.4-1.8,3.7-2.2c1.3-0.4,2.6-0.4,3.8-0.1c1.2,0.4,2.3,1.1,3.3,2.1
			c0.1,0.2,0.1,0.4-0.1,0.6l-1.9,2l-0.1,0.1c-0.2,0.2-0.3,0.2-0.4,0.1l-0.1-0.1c-0.9-0.9-1.8-1.4-2.9-1.4c-1.1,0-2.1,0.4-3.1,1.3
			c-1,0.9-1.5,1.9-1.5,3c-0.1,1.1,0.3,2.1,1.2,3.1l5.6,6c0.8,0.9,1.8,1.4,2.9,1.4c1.1,0,2.1-0.4,3.1-1.3c1-0.9,1.5-1.9,1.5-3
			c0.1-1.1-0.3-2.1-1.2-3C74,62.2,74,62.1,74,62c0-0.1,0.1-0.2,0.2-0.3l2.1-1.7c0.3-0.2,0.4-0.3,0.5-0.2l0.1,0.1
			c1,1.1,1.6,2.2,1.9,3.5c0.3,1.3,0.2,2.5-0.3,3.8c-0.5,1.3-1.3,2.5-2.5,3.5C74.8,71.7,73.6,72.5,72.2,72.8z"/>
		<path class="st1" d="M87.8,60.1c-1.4,0.1-2.7-0.2-3.9-0.9c-1.2-0.7-2.2-1.7-3-3l-3.8-6.3c-0.8-1.3-1.2-2.7-1.2-4.1
			c0-1.4,0.3-2.7,1-3.9c0.7-1.2,1.8-2.2,3.2-3c1.4-0.8,2.8-1.3,4.2-1.4c1.4-0.1,2.7,0.2,3.9,0.9c1.2,0.7,2.2,1.7,3,3l3.8,6.3
			c0.8,1.3,1.2,2.7,1.3,4.1c0,1.4-0.3,2.7-1,3.9c-0.7,1.2-1.8,2.2-3.2,3.1C90.6,59.6,89.2,60,87.8,60.1z M92.5,53.2
			c0.3-1.1,0-2.3-0.7-3.5l-3.9-6.4c-0.7-1.2-1.6-1.9-2.8-2.2c-1.1-0.3-2.3-0.1-3.4,0.6c-1.1,0.7-1.8,1.6-2.1,2.7
			c-0.3,1.1,0,2.3,0.7,3.5l3.9,6.4c0.7,1.2,1.6,1.9,2.8,2.2c1.1,0.3,2.3,0.1,3.4-0.6C91.5,55.3,92.2,54.3,92.5,53.2z"/>
		<path class="st1" d="M115.2,47.7l-2-2.8c-0.1-0.1-0.1-0.1-0.3-0.1l-8,2.7c-0.1,0-0.2,0.1-0.2,0.2l0.1,3.5c0,0.3-0.1,0.5-0.4,0.6
			l-2.8,1c-0.2,0.1-0.3,0-0.4,0s-0.2-0.2-0.2-0.4l-0.5-22.6c0-0.3,0.1-0.5,0.4-0.6l3.6-1.2c0.3-0.1,0.5,0,0.7,0.2l13.6,18.1
			c0,0,0.1,0.1,0.1,0.2c0.1,0.2,0,0.4-0.3,0.5l-2.8,1C115.6,48,115.4,48,115.2,47.7z M104.9,44.5l6.2-2.1c0.1,0,0.1-0.1,0.1-0.3
			l-6.7-9.3c0-0.1-0.1-0.1-0.1-0.1c-0.1,0-0.1,0.1-0.1,0.2l0.4,11.4C104.7,44.5,104.8,44.5,104.9,44.5z"/>
		<path class="st1" d="M126.1,45.2c-1.3-0.4-2.3-1-3.1-1.9c-0.8-0.9-1.2-2-1.4-3.3l-0.1-0.7c0-0.3,0.1-0.5,0.5-0.6l2.6-0.3
			c0.3,0,0.5,0.1,0.6,0.4l0.1,0.5c0.1,1,0.6,1.7,1.6,2.3c0.9,0.6,2.1,0.7,3.6,0.6c1.3-0.2,2.3-0.5,2.8-1.2s0.8-1.4,0.7-2.3
			c-0.1-0.6-0.3-1.1-0.7-1.5c-0.4-0.4-1-0.7-1.7-1c-0.7-0.3-1.8-0.6-3.2-0.9c-1.6-0.4-2.9-0.8-3.9-1.1c-1-0.4-1.9-1-2.6-1.7
			c-0.7-0.8-1.2-1.8-1.3-3c-0.2-1.9,0.3-3.4,1.5-4.7c1.2-1.2,3-2,5.3-2.3c1.6-0.2,3-0.1,4.3,0.3c1.3,0.4,2.3,1.1,3.1,2
			c0.8,0.9,1.3,2,1.4,3.3l0,0.4c0,0.3-0.1,0.5-0.5,0.6l-2.6,0.3c-0.1,0-0.3,0-0.4-0.1c-0.1-0.1-0.2-0.1-0.2-0.3l0-0.4
			c-0.1-1-0.6-1.8-1.5-2.4c-0.9-0.6-2.1-0.8-3.5-0.6c-1.2,0.1-2.1,0.5-2.7,1.1c-0.6,0.6-0.8,1.3-0.7,2.2c0.1,0.6,0.3,1.1,0.7,1.5
			c0.4,0.4,0.9,0.7,1.7,0.9c0.7,0.3,1.8,0.5,3.3,0.9c1.6,0.4,2.9,0.8,3.8,1.1c1,0.4,1.8,0.9,2.6,1.7c0.7,0.8,1.2,1.8,1.3,3
			c0.1,1.2,0,2.4-0.6,3.4c-0.5,1-1.4,1.9-2.5,2.5c-1.1,0.7-2.5,1.1-4.1,1.3C128.9,45.7,127.4,45.6,126.1,45.2z"/>
		<path class="st1" d="M158.1,23.4l-0.2,2.2c0,0.3-0.2,0.5-0.6,0.5l-5.8-0.4c-0.1,0-0.2,0.1-0.2,0.2l-1.3,18.6
			c0,0.3-0.2,0.5-0.6,0.5l-2.7-0.2c-0.3,0-0.5-0.2-0.5-0.5l1.3-18.6c0-0.1-0.1-0.2-0.2-0.2l-5.5-0.4c-0.3,0-0.5-0.2-0.5-0.5l0.2-2.2
			c0-0.3,0.2-0.5,0.5-0.5l15.4,1C158,22.9,158.1,23.1,158.1,23.4z"/>
		<path class="st1" d="M178.4,30.9l-10.5-2.7c-0.1,0-0.2,0-0.2,0.1l-1.5,5.8c0,0.1,0,0.2,0.1,0.2l7,1.8c0.3,0.1,0.5,0.3,0.4,0.6
			l-0.5,2.1c-0.1,0.3-0.3,0.5-0.6,0.4l-7-1.8c-0.1,0-0.2,0-0.2,0.1l-1.5,6c0,0.1,0,0.2,0.1,0.2l10.5,2.7c0.3,0.1,0.5,0.3,0.4,0.6
			l-0.6,2.1c-0.1,0.3-0.3,0.5-0.6,0.4l-13.8-3.6c-0.3-0.1-0.5-0.3-0.4-0.6l5.4-20.8c0.1-0.3,0.3-0.5,0.6-0.4l13.8,3.6
			c0.3,0.1,0.5,0.3,0.4,0.6l-0.5,2.1C178.9,30.9,178.7,31,178.4,30.9z"/>
		<path class="st1" d="M188.9,56.3l0.3-10.1c0-0.1,0-0.2-0.1-0.2l-3.4-1.7c-0.1-0.1-0.2,0-0.3,0.1l-4,8.1c-0.2,0.3-0.4,0.4-0.7,0.2
			l-2.4-1.2c-0.3-0.2-0.4-0.4-0.2-0.7l9.5-19.4c0.2-0.3,0.4-0.4,0.7-0.2l7.8,3.9c1.2,0.6,2.1,1.3,2.8,2.3c0.7,0.9,1,2,1.1,3.1
			s-0.2,2.3-0.8,3.5c-0.7,1.3-1.6,2.3-2.7,2.9s-2.4,0.8-3.8,0.5c-0.1,0-0.1,0-0.2,0c0,0-0.1,0.1,0,0.1l-0.1,10.2l-0.1,0.3
			c-0.1,0.2-0.3,0.3-0.6,0.1l-2.5-1.3C189,56.7,188.8,56.5,188.9,56.3z M189.6,35.7l-2.8,5.7c-0.1,0.1,0,0.2,0.1,0.3l4.3,2.1
			c0.9,0.5,1.8,0.5,2.6,0.3c0.8-0.3,1.5-0.8,1.9-1.7c0.4-0.9,0.5-1.8,0.2-2.6c-0.3-0.8-0.9-1.5-1.8-2l-4.3-2.1
			C189.7,35.5,189.7,35.6,189.6,35.7z"/>
		<path class="st1" d="M198.4,62.1c-0.6-1.2-0.9-2.4-0.9-3.5c0.1-1.2,0.5-2.3,1.3-3.3l0.4-0.5c0.2-0.3,0.5-0.3,0.7-0.1l2.1,1.6
			c0.3,0.2,0.3,0.4,0.1,0.7l-0.3,0.4c-0.6,0.8-0.8,1.7-0.5,2.7c0.3,1.1,1,2,2.1,2.9c1,0.8,2,1.2,2.9,1.2c0.9,0,1.6-0.4,2.1-1.1
			c0.4-0.5,0.5-1,0.5-1.5c0-0.6-0.2-1.2-0.5-1.9c-0.3-0.7-0.9-1.7-1.6-2.9c-0.9-1.4-1.5-2.6-2-3.5c-0.4-1-0.7-2-0.6-3
			s0.4-2.1,1.2-3.1c1.2-1.5,2.6-2.2,4.4-2.3c1.8,0,3.5,0.7,5.4,2.1c1.3,1,2.2,2.1,2.9,3.3c0.6,1.2,0.9,2.4,0.8,3.6
			c-0.1,1.2-0.5,2.3-1.3,3.4l-0.3,0.3c-0.2,0.3-0.5,0.3-0.7,0.1l-2.1-1.6c-0.1-0.1-0.2-0.2-0.2-0.3c0-0.1,0-0.2,0.1-0.3l0.2-0.3
			c0.6-0.8,0.8-1.7,0.6-2.8c-0.2-1.1-0.9-2-2.1-2.9c-0.9-0.7-1.8-1.1-2.6-1.1s-1.5,0.3-2.1,1c-0.4,0.5-0.6,1-0.6,1.6
			c0,0.5,0.2,1.1,0.5,1.8c0.3,0.7,0.9,1.7,1.7,3c0.8,1.4,1.5,2.6,1.9,3.5c0.4,0.9,0.6,1.9,0.6,3c0,1.1-0.4,2.1-1.2,3.1
			c-0.8,1-1.7,1.7-2.8,2c-1.1,0.4-2.3,0.4-3.6,0.1c-1.3-0.3-2.6-1-3.8-2C200,64.4,199,63.3,198.4,62.1z"/>
	</g>
</g>
<g id="Text_klein">
	<g>
		<path class="st1" d="M94.9,230.8c0.3,0.5,0.5,1.1,0.5,1.7s-0.2,1.2-0.5,1.8c-0.3,0.6-0.8,1.1-1.3,1.4s-1.1,0.5-1.7,0.4
			c-0.6,0-1.3-0.2-1.9-0.6l-2.3-1.3c-0.1,0-0.1,0-0.1,0l-2.2,3.9c-0.1,0.2-0.2,0.2-0.4,0.1l-1.2-0.7c-0.2-0.1-0.2-0.2-0.1-0.4
			l5.6-9.8c0.1-0.2,0.2-0.2,0.4-0.1l4,2.2C94.1,229.8,94.5,230.3,94.9,230.8z M92,234.3c0.5-0.1,0.8-0.4,1.1-0.9
			c0.3-0.5,0.3-1,0.2-1.4c-0.1-0.5-0.4-0.9-0.9-1.1l-2.2-1.2c-0.1,0-0.1,0-0.1,0l-1.7,3.1c0,0.1,0,0.1,0,0.1l2.2,1.2
			C91,234.3,91.5,234.4,92,234.3z"/>
		<path class="st1" d="M96.2,243.7c-0.5-0.6-0.7-1.2-0.8-1.9c-0.1-0.7,0-1.5,0.4-2.2l1.5-3.5c0.3-0.7,0.8-1.3,1.3-1.8s1.2-0.7,2-0.8
			s1.5,0.1,2.3,0.4c0.8,0.3,1.4,0.8,1.9,1.4c0.5,0.6,0.7,1.2,0.8,1.9c0.1,0.7,0,1.4-0.3,2.2l-1.5,3.5c-0.3,0.8-0.8,1.4-1.3,1.8
			c-0.6,0.4-1.2,0.7-2,0.8c-0.7,0.1-1.5-0.1-2.3-0.4C97.3,244.7,96.7,244.3,96.2,243.7z M100.6,243.6c0.6-0.2,1-0.7,1.3-1.4l1.5-3.6
			c0.3-0.7,0.3-1.3,0.1-1.9c-0.2-0.6-0.7-1-1.3-1.3c-0.6-0.3-1.2-0.3-1.8-0.1c-0.6,0.2-1,0.7-1.3,1.4l-1.5,3.6
			c-0.3,0.7-0.3,1.3-0.1,1.9c0.2,0.6,0.7,1,1.3,1.3C99.4,243.8,100,243.8,100.6,243.6z"/>
		<path class="st1" d="M108.5,248.5l0-11.7c0,0,0-0.1,0-0.1c0-0.1,0.1-0.1,0.1-0.1c0.1,0,0.1,0,0.2,0l1.5,0.4c0.2,0,0.2,0.1,0.2,0.3
			l-0.2,7.8c0,0,0,0.1,0,0.1s0.1,0,0.1,0l3.7-6.9c0.1-0.1,0.2-0.2,0.3-0.2l1.5,0.4c0.2,0,0.2,0.1,0.2,0.3l-0.1,7.8c0,0,0,0.1,0,0.1
			c0,0,0.1,0,0.1,0l3.8-6.8c0.1-0.1,0.2-0.2,0.3-0.2l1.4,0.4c0.1,0,0.1,0.1,0.2,0.1c0,0.1,0,0.1,0,0.2l-5.7,10.1
			c-0.1,0.1-0.2,0.2-0.4,0.1l-1.4-0.4c-0.2,0-0.2-0.1-0.2-0.3l0.2-8.2c0,0,0-0.1,0-0.1c0,0-0.1,0-0.1,0l-3.9,7.2
			c-0.1,0.1-0.2,0.2-0.3,0.2l-1.3-0.4C108.6,248.8,108.5,248.7,108.5,248.5z"/>
		<path class="st1" d="M132,243.2l-5.6-0.8c-0.1,0-0.1,0-0.1,0.1l-0.4,3.1c0,0.1,0,0.1,0.1,0.1l3.8,0.5c0.2,0,0.3,0.1,0.2,0.3
			l-0.2,1.1c0,0.2-0.1,0.3-0.3,0.2l-3.8-0.5c-0.1,0-0.1,0-0.1,0.1l-0.4,3.2c0,0.1,0,0.1,0.1,0.1l5.6,0.8c0.2,0,0.3,0.1,0.2,0.3
			L131,253c0,0.2-0.1,0.3-0.3,0.2l-7.4-1c-0.2,0-0.3-0.1-0.2-0.3l1.5-11.2c0-0.2,0.1-0.3,0.3-0.2l7.4,1c0.2,0,0.3,0.1,0.2,0.3
			l-0.2,1.1C132.3,243.1,132.2,243.2,132,243.2z"/>
		<path class="st1" d="M141.4,253.5l-2.1-4.9c0,0,0-0.1-0.1-0.1l-2,0c-0.1,0-0.1,0-0.1,0.1l-0.1,4.7c0,0.2-0.1,0.3-0.3,0.3l-1.4,0
			c-0.2,0-0.3-0.1-0.3-0.3l0.3-11.3c0-0.2,0.1-0.3,0.3-0.3l4.6,0.1c0.7,0,1.3,0.2,1.8,0.5s0.9,0.7,1.2,1.2c0.3,0.5,0.4,1.1,0.4,1.8
			c0,0.8-0.2,1.4-0.6,2c-0.4,0.5-1,0.9-1.7,1.1c0,0-0.1,0-0.1,0.1c0,0,0,0.1,0,0.1l2.2,4.9l0,0.1c0,0.1-0.1,0.2-0.2,0.2l-1.5,0
			C141.6,253.7,141.5,253.7,141.4,253.5z M137.3,243.6l-0.1,3.3c0,0.1,0,0.1,0.1,0.1l2.5,0.1c0.5,0,1-0.1,1.3-0.4
			c0.3-0.3,0.5-0.7,0.5-1.2c0-0.5-0.1-1-0.5-1.3c-0.3-0.3-0.8-0.5-1.3-0.5l-2.5-0.1C137.3,243.5,137.3,243.5,137.3,243.6z"/>
		<path class="st1" d="M154.4,242.9l-5.7,0.5c-0.1,0-0.1,0-0.1,0.1l0.3,3.1c0,0.1,0,0.1,0.1,0.1l3.8-0.3c0.2,0,0.3,0.1,0.3,0.2
			l0.1,1.1c0,0.2-0.1,0.3-0.2,0.3l-3.8,0.3c-0.1,0-0.1,0-0.1,0.1l0.3,3.2c0,0.1,0,0.1,0.1,0.1l5.7-0.5c0.2,0,0.3,0.1,0.3,0.2
			l0.1,1.1c0,0.2-0.1,0.3-0.2,0.3l-7.4,0.6c-0.2,0-0.3-0.1-0.3-0.2l-0.9-11.2c0-0.2,0.1-0.3,0.2-0.3l7.4-0.6c0.2,0,0.3,0.1,0.3,0.2
			l0.1,1.1C154.6,242.8,154.6,242.8,154.4,242.9z"/>
		<path class="st1" d="M159.6,252.1l-2.2-11.1c0-0.2,0-0.3,0.2-0.3l4-0.8c0.8-0.2,1.5-0.2,2.2,0c0.7,0.2,1.2,0.5,1.6,0.9
			c0.4,0.4,0.7,1,0.8,1.7l0.9,4.8c0.1,0.7,0.1,1.3-0.1,1.9s-0.6,1.1-1.2,1.5c-0.5,0.4-1.2,0.7-2,0.8l-4,0.8
			C159.7,252.3,159.6,252.3,159.6,252.1z M161.3,250.3l2.3-0.5c0.6-0.1,1-0.4,1.3-0.8c0.3-0.4,0.4-1,0.2-1.6l-0.8-4.2
			c-0.1-0.6-0.4-1.1-0.8-1.4s-0.9-0.4-1.5-0.3l-2.3,0.5c-0.1,0-0.1,0.1-0.1,0.1l1.6,8.1C161.2,250.3,161.2,250.3,161.3,250.3z"/>
		<path class="st1" d="M181,240.1C181,240.1,181,240.1,181,240.1c1.3,0.2,2.2,0.8,2.6,2.1c0.4,1,0.3,1.9-0.2,2.7s-1.3,1.4-2.3,1.8
			l-3.9,1.5c-0.2,0.1-0.3,0-0.3-0.2l-3.9-10.6c-0.1-0.2,0-0.3,0.2-0.3l3.8-1.4c1.2-0.4,2.1-0.5,2.9-0.2c0.8,0.3,1.4,0.9,1.8,1.9
			C182,238.3,181.8,239.2,181,240.1C181,240.1,180.9,240.1,181,240.1z M175.3,238l1.1,2.9c0,0.1,0.1,0.1,0.1,0.1l2.1-0.8
			c0.6-0.2,1-0.5,1.2-0.9c0.2-0.4,0.2-0.8,0.1-1.3c-0.2-0.5-0.5-0.8-0.9-1s-0.9-0.1-1.5,0.1l-2.1,0.8
			C175.3,237.9,175.2,238,175.3,238z M181.7,244.1c0.2-0.4,0.2-0.9,0-1.4c-0.2-0.5-0.5-0.9-0.9-1c-0.4-0.2-0.9-0.1-1.5,0.1l-2.2,0.8
			c-0.1,0-0.1,0.1-0.1,0.1l1.2,3.1c0,0.1,0.1,0.1,0.1,0.1l2.2-0.8C181.1,244.8,181.4,244.5,181.7,244.1z"/>
		<path class="st1" d="M190.8,242.1l-2-4c0,0,0-0.1-0.1-0.1l-6-4.4c-0.1,0-0.1-0.1-0.1-0.1c-0.1-0.1,0-0.2,0.1-0.3l1.4-0.7
			c0.1-0.1,0.3-0.1,0.4,0l4.2,3.1c0,0,0.1,0,0.1,0c0,0,0,0,0-0.1l0-5.2c0-0.2,0.1-0.3,0.2-0.3l1.4-0.7c0.1-0.1,0.2-0.1,0.3,0
			c0,0,0,0.1,0,0.2l-0.1,7.5c0,0.1,0,0.1,0,0.1l2,4c0.1,0.2,0,0.3-0.1,0.4l-1.3,0.6C191,242.3,190.9,242.2,190.8,242.1z"/>
		<path class="st1" d="M204.1,222.4l-4.6,3.3c-0.1,0-0.1,0.1,0,0.1l1.8,2.5c0,0.1,0.1,0.1,0.1,0l3.1-2.2c0.1-0.1,0.3-0.1,0.4,0.1
			l0.7,0.9c0.1,0.1,0.1,0.3-0.1,0.4l-3.1,2.2c-0.1,0-0.1,0.1,0,0.1l2.8,3.9c0.1,0.1,0.1,0.3-0.1,0.4l-1.2,0.8
			c-0.1,0.1-0.3,0.1-0.4-0.1l-6.5-9.2c-0.1-0.1-0.1-0.3,0.1-0.4l6.1-4.3c0.1-0.1,0.3-0.1,0.4,0.1l0.7,0.9
			C204.2,222.1,204.2,222.3,204.1,222.4z"/>
		<path class="st1" d="M210.3,214.7l1.1-0.9c0.1-0.1,0.3-0.1,0.4,0l7.5,8.4c0.1,0.1,0.1,0.3,0,0.4l-1.1,0.9c-0.1,0.1-0.3,0.1-0.4,0
			l-3.2-3.5c0,0-0.1-0.1-0.1,0l-3.2,2.8c-0.1,0-0.1,0.1,0,0.1l3.2,3.5c0.1,0.1,0.1,0.3,0,0.4l-1.1,0.9c-0.1,0.1-0.3,0.1-0.4,0
			l-7.5-8.4c-0.1-0.1-0.1-0.3,0-0.4l1.1-0.9c0.1-0.1,0.3-0.1,0.4,0l3.1,3.5c0,0,0.1,0.1,0.1,0l3.2-2.8c0.1,0,0.1-0.1,0-0.1l-3.1-3.5
			C210.2,215,210.2,214.9,210.3,214.7z"/>
		<path class="st1" d="M227,213.8c-0.7,0.3-1.3,0.4-2,0.3c-0.7-0.1-1.3-0.4-1.9-0.9l-3.2-2.6c-0.6-0.5-1-1.1-1.3-1.7
			c-0.2-0.6-0.3-1.3-0.1-2c0.2-0.7,0.5-1.4,1-2c0.5-0.6,1.1-1.1,1.8-1.4c0.6-0.3,1.3-0.4,2-0.3c0.7,0.1,1.3,0.4,1.9,0.9
			c0.1,0.1,0.1,0.2,0,0.3l-0.8,1.2l0,0.1c-0.1,0.1-0.1,0.1-0.2,0.1l-0.1-0.1c-0.5-0.4-1.1-0.6-1.6-0.5c-0.6,0.1-1.1,0.4-1.5,0.9
			c-0.4,0.5-0.6,1.1-0.6,1.7c0.1,0.6,0.3,1.1,0.9,1.5l3.3,2.7c0.5,0.4,1,0.6,1.6,0.5c0.6-0.1,1.1-0.4,1.5-0.9
			c0.4-0.5,0.6-1.1,0.6-1.7c0-0.6-0.3-1.1-0.8-1.5c0,0-0.1-0.1-0.1-0.1c0-0.1,0-0.1,0.1-0.2l0.9-1.1c0.1-0.1,0.2-0.2,0.2-0.2
			l0.1,0.1c0.6,0.5,1,1,1.2,1.7c0.2,0.6,0.3,1.3,0.1,2s-0.5,1.4-1,2C228.2,213,227.6,213.5,227,213.8z"/>
		<path class="st1" d="M237.4,199.5l-1.7-0.5c-0.1,0-0.1,0-0.1,0.1l-2.4,3.7c0,0.1,0,0.1,0,0.1l1.2,1.4c0.1,0.1,0.1,0.2,0,0.4
			l-0.8,1.3c0,0.1-0.1,0.1-0.2,0.1c-0.1,0-0.1,0-0.2-0.1l-7.6-9.1c-0.1-0.1-0.1-0.2,0-0.4l1.1-1.7c0.1-0.1,0.2-0.2,0.3-0.1l11.5,3
			c0,0,0.1,0,0.1,0c0.1,0.1,0.1,0.2,0,0.3l-0.8,1.3C237.7,199.5,237.6,199.6,237.4,199.5z M232.1,201.6l1.9-2.9c0-0.1,0-0.1-0.1-0.1
			l-5.8-1.6c0,0-0.1,0-0.1,0s0,0.1,0,0.1l3.9,4.6C232,201.6,232.1,201.6,232.1,201.6z"/>
		<path class="st1" d="M240.5,194.2l-10.2-4.9c-0.2-0.1-0.2-0.2-0.1-0.4l0.6-1.3c0.1-0.1,0.2-0.2,0.3-0.2l5-0.5c0,0,0.1,0,0.1,0
			c0,0,0-0.1,0-0.1l-2.7-4.2c-0.1-0.1-0.1-0.2,0-0.4l0.6-1.3c0.1-0.2,0.2-0.2,0.4-0.1l10.2,4.9c0.2,0.1,0.2,0.2,0.1,0.4l-0.6,1.3
			c-0.1,0.2-0.2,0.2-0.4,0.1l-7.2-3.5c0,0-0.1,0-0.1,0s0,0.1,0,0.1l2.1,3.2c0.1,0.1,0.1,0.2,0,0.4l-0.3,0.6
			c-0.1,0.1-0.2,0.2-0.3,0.2l-3.8,0.4c0,0-0.1,0-0.1,0s0,0.1,0.1,0.1l7.2,3.4c0.2,0.1,0.2,0.2,0.1,0.4l-0.6,1.3
			C240.8,194.2,240.7,194.3,240.5,194.2z"/>
		<path class="st1" d="M237.9,171.4c0.5-0.4,1-0.7,1.6-0.8s1.2-0.1,1.9,0.2c0.7,0.2,1.2,0.6,1.6,1c0.4,0.5,0.7,1,0.7,1.6
			s0,1.3-0.2,2l-0.9,2.5c0,0.1,0,0.1,0.1,0.1l4.2,1.4c0.2,0.1,0.2,0.2,0.2,0.3l-0.5,1.3c-0.1,0.2-0.2,0.2-0.3,0.2l-10.7-3.6
			c-0.2-0.1-0.2-0.2-0.2-0.3l1.5-4.3C237.1,172.4,237.4,171.8,237.9,171.4z M241.9,173.6c-0.2-0.4-0.6-0.7-1.1-0.9
			c-0.5-0.2-1-0.2-1.5,0.1c-0.4,0.2-0.8,0.6-0.9,1.1l-0.8,2.4c0,0.1,0,0.1,0.1,0.1l3.3,1.1c0.1,0,0.1,0,0.1-0.1l0.8-2.4
			C242.1,174.5,242.1,174,241.9,173.6z"/>
		<path class="st1" d="M250.4,167.6c-0.5,0.6-1,0.9-1.7,1.2c-0.7,0.2-1.4,0.2-2.2,0.1l-7.5-1.6c-0.2,0-0.2-0.1-0.2-0.3l0.3-1.4
			c0-0.2,0.1-0.2,0.3-0.2l7.6,1.6c0.6,0.1,1.2,0.1,1.7-0.3s0.8-0.8,1-1.5c0.1-0.7,0.1-1.3-0.3-1.8s-0.8-0.8-1.5-1l-7.6-1.6
			c-0.2,0-0.2-0.1-0.2-0.3l0.3-1.4c0-0.2,0.1-0.2,0.3-0.2l7.5,1.6c0.8,0.2,1.4,0.5,1.9,1c0.5,0.5,0.9,1.1,1,1.7
			c0.2,0.7,0.2,1.5,0,2.3C251.1,166.3,250.8,167,250.4,167.6z"/>
		<path class="st1" d="M252.6,155.3c-0.3,0.6-0.8,1.1-1.3,1.4s-1.2,0.4-1.8,0.3l-0.4,0c-0.2,0-0.3-0.1-0.2-0.3l0.1-1.4
			c0-0.2,0.1-0.3,0.3-0.2l0.3,0c0.5,0.1,1-0.1,1.4-0.6c0.4-0.4,0.6-1,0.7-1.8c0.1-0.7,0-1.2-0.3-1.6c-0.3-0.4-0.6-0.6-1.1-0.6
			c-0.3,0-0.6,0-0.8,0.2c-0.2,0.2-0.5,0.4-0.7,0.8c-0.2,0.3-0.5,0.8-0.8,1.5c-0.4,0.8-0.7,1.4-1,1.8c-0.3,0.5-0.7,0.8-1.2,1.1
			c-0.5,0.3-1,0.4-1.7,0.3c-1-0.1-1.7-0.5-2.2-1.3c-0.5-0.8-0.7-1.8-0.6-3c0.1-0.8,0.3-1.6,0.7-2.2c0.4-0.6,0.8-1.1,1.4-1.4
			c0.6-0.3,1.2-0.4,1.9-0.4l0.2,0c0.2,0,0.3,0.1,0.2,0.3l-0.1,1.4c0,0.1,0,0.1-0.1,0.2c0,0-0.1,0.1-0.2,0.1l-0.2,0
			c-0.5-0.1-1,0.1-1.4,0.5c-0.4,0.4-0.7,1-0.7,1.7c-0.1,0.6,0,1.1,0.2,1.5c0.2,0.4,0.6,0.6,1,0.6c0.3,0,0.6,0,0.9-0.2
			c0.2-0.2,0.5-0.4,0.7-0.7c0.2-0.3,0.5-0.9,0.8-1.6c0.4-0.8,0.7-1.4,1-1.8c0.3-0.5,0.7-0.8,1.2-1.1s1-0.4,1.7-0.3
			c0.7,0.1,1.2,0.3,1.7,0.7c0.5,0.4,0.8,0.9,1,1.6c0.2,0.7,0.3,1.4,0.2,2.3C253.2,153.9,253,154.6,252.6,155.3z"/>
		<path class="st1" d="M253.4,137.2l-11,3.9c0,0,0,0-0.1,0c-0.1,0-0.1,0-0.2-0.1s-0.1-0.1-0.1-0.2l-0.1-1.5c0-0.2,0.1-0.3,0.2-0.3
			l7.4-2.5c0,0,0.1,0,0.1-0.1c0,0,0-0.1-0.1-0.1l-7.7-1.2c-0.2,0-0.2-0.1-0.3-0.3l-0.1-1.5c0-0.2,0.1-0.3,0.2-0.3l7.4-2.5
			c0,0,0.1,0,0.1-0.1c0,0,0-0.1-0.1-0.1l-7.7-1.3c-0.2,0-0.2-0.1-0.3-0.3l-0.1-1.4c0-0.1,0-0.2,0.1-0.2c0.1,0,0.1-0.1,0.2,0l11.5,2
			c0.2,0,0.2,0.1,0.3,0.3l0.1,1.5c0,0.2-0.1,0.3-0.2,0.3l-7.8,2.5c0,0-0.1,0-0.1,0.1c0,0,0,0.1,0.1,0.1l8.1,1.3
			c0.2,0,0.2,0.1,0.3,0.3l0.1,1.4C253.7,137.1,253.6,137.2,253.4,137.2z"/>
		<path class="st1" d="M251.8,122.6l-11.1,2c-0.2,0-0.3,0-0.3-0.2l-0.3-1.4c0-0.2,0-0.3,0.2-0.3l11.1-2c0.2,0,0.3,0,0.3,0.2l0.3,1.4
			C252,122.4,252,122.5,251.8,122.6z"/>
		<path class="st1" d="M239.1,111.5l1.5,5.5c0,0.1,0.1,0.1,0.1,0.1l3-0.8c0.1,0,0.1-0.1,0.1-0.1l-1-3.7c0-0.2,0-0.3,0.2-0.3l1.1-0.3
			c0.2,0,0.3,0,0.3,0.2l1,3.7c0,0.1,0.1,0.1,0.1,0.1l3.1-0.8c0.1,0,0.1-0.1,0.1-0.1l-1.5-5.5c0-0.2,0-0.3,0.2-0.3l1.1-0.3
			c0.2,0,0.3,0,0.3,0.2l1.9,7.2c0,0.2,0,0.3-0.2,0.3l-10.9,2.9c-0.2,0-0.3,0-0.3-0.2l-1.9-7.2c0-0.2,0-0.3,0.2-0.3l1.1-0.3
			C238.9,111.3,239,111.3,239.1,111.5z"/>
		<path class="st1" d="M247.2,104.7l-10.5,4.2c-0.2,0.1-0.3,0-0.4-0.2l-0.5-1.3c-0.1-0.1,0-0.3,0-0.4l5.5-7.2c0,0,0-0.1,0-0.1
			c0,0-0.1,0-0.1,0l-7.1,2.8c-0.2,0.1-0.3,0-0.4-0.2l-0.5-1.3c-0.1-0.2,0-0.3,0.2-0.4l10.5-4.2c0.2-0.1,0.3,0,0.4,0.2l0.5,1.3
			c0.1,0.1,0,0.3,0,0.4l-5.5,7.3c0,0,0,0.1,0,0.1c0,0,0.1,0,0.1,0l7.1-2.8c0.2-0.1,0.3,0,0.4,0.2l0.5,1.3
			C247.5,104.5,247.4,104.7,247.2,104.7z"/>
	</g>
</g>
</svg>
