<svg width="310" height="310" xmlns="http://www.w3.org/2000/svg" version="1.1" xml:space="preserve">
 <defs>
  <linearGradient id="SVGID_1_" x1="0.07335" y1="0.77634" x2="0.91258" y2="0.2317">
   <stop offset="0.1028" stop-color="#FFFFFF"/>
   <stop offset="0.171" stop-color="#F7F7F7"/>
   <stop offset="0.2777" stop-color="#E1E1E1"/>
   <stop offset="0.4097" stop-color="#BCBCBC"/>
   <stop offset="0.5619" stop-color="#898989"/>
   <stop offset="0.7309" stop-color="#494948"/>
   <stop offset="0.9" stop-color="#000000"/>
  </linearGradient>
 </defs>
 <g>
  <title>Layer 1</title>
  <g stroke="null" stroke-width="0" id="svg_87">
   <circle stroke="null" fill="#ffffff" cx="154.55708" cy="154.91425" r="153.84274" id="svg_83"/>
   <path stroke="null" class="st0" d="m96.5716,213.96917c-15.59458,-15.74054 -24.0508,-36.72792 -24.0508,-59.05492c0,-22.327 8.56604,-43.31439 24.0508,-59.05492s36.13111,-24.33643 57.98548,-24.33643c21.9642,0 42.61054,8.70753 58.0953,24.44807s24.0508,36.72792 24.0508,59.05492c0,22.327 -8.56604,43.31439 -24.0508,59.05492c-15.48476,15.74054 -36.13111,24.44807 -58.0953,24.44807c-21.85438,-0.11164 -42.50072,-8.81917 -57.98548,-24.5597zm113.77455,-115.76551c-30.74988,-31.2578 -80.82825,-31.2578 -111.57813,0c-30.74988,31.2578 -30.74988,82.16337 0,113.42118c30.74988,31.2578 80.82825,31.2578 111.57813,0c30.74988,-31.2578 30.74988,-82.16337 0,-113.42118z" fill="#ffffff" id="svg_84"/>
   <path stroke="null" class="st1" d="m57.91461,253.04143c-2.74552,-2.79088 -0.5491,-7.92609 2.96517,-16.41035c2.41606,-5.80502 5.49105,-12.94966 7.90711,-21.65719c4.50266,-15.85217 5.93033,-32.59742 4.28302,-50.01249l3.18481,-0.33491c1.64731,17.74997 0.10982,34.94176 -4.39284,51.24047c-2.52588,8.9308 -5.60087,16.18708 -8.01693,21.9921c-2.52588,5.91666 -4.83212,11.49841 -3.62409,12.72639c0,0 0,0 0,0c0.43928,0.44654 2.6357,1.33962 11.5312,-3.90723c6.2598,-3.68396 14.05709,-9.26571 21.52491,-14.62419c17.57136,-12.61476 38.32753,-30.69963 61.60958,-53.80808c3.84373,-3.79559 7.90711,-7.81445 11.64102,-11.72168l2.30624,2.34434c-3.73391,3.79559 -7.79729,7.92609 -11.64102,11.72168c-23.50169,23.22008 -44.36768,41.41659 -62.04886,54.14298c-19.8776,14.28928 -32.39719,22.66191 -37.11949,18.30814c-0.10982,0.11164 -0.10982,0.11164 -0.10982,0z" fill="#ffffff" id="svg_85"/>
   <path stroke="null" class="st1" d="m180.25519,208.49906l35.582,-64.85994c3.62409,-6.58647 7.46783,-12.94966 11.75085,-18.97795l39.64538,-57.3804c0.21964,-0.33491 -0.10982,-0.66981 -0.43928,-0.44654l-56.44799,40.30024c-6.04015,4.35377 -12.29995,8.26099 -18.66957,11.94495l-63.806,36.16974c-0.32946,0.22327 -0.10982,0.66981 0.21964,0.55818l41.62216,-11.38677l2.30624,2.34434l-6.8089,1.8978l1.64731,6.3632l-3.84373,2.34434l1.53749,1.56289l-3.07499,3.01415l6.04015,6.13993l6.04015,6.13993l3.07499,-3.01415l1.53749,1.56289l2.30624,-3.90723l6.2598,1.67453l1.86696,-6.92137l2.30624,2.34434l-11.20174,42.30967c-0.21964,0.33491 0.32946,0.55818 0.5491,0.22327z" fill="#ffffff" id="svg_86"/>
  </g>
  <g stroke-width="0" id="Illustration">
   <circle cx="154.64287" cy="154.64283" r="141.7" id="svg_1"/>
   <path class="st0" d="m101.84287,207.54283c-14.2,-14.1 -21.9,-32.9 -21.9,-52.9c0,-20 7.8,-38.8 21.9,-52.9s32.9,-21.8 52.8,-21.8c20,0 38.8,7.8 52.9,21.9s21.9,32.9 21.9,52.9c0,20 -7.8,38.8 -21.9,52.9c-14.1,14.1 -32.9,21.9 -52.9,21.9c-19.9,-0.1 -38.7,-7.9 -52.8,-22zm103.6,-103.7c-28,-28 -73.6,-28 -101.6,0c-28,28 -28,73.6 0,101.6c28,28 73.6,28 101.6,0c28,-28 28,-73.6 0,-101.6z" fill="url(#SVGID_1_)" id="svg_2"/>
   <path class="st1" d="m66.64287,242.54283c-2.5,-2.5 -0.5,-7.1 2.7,-14.7c2.2,-5.2 5,-11.6 7.2,-19.4c4.1,-14.2 5.4,-29.2 3.9,-44.8l2.9,-0.3c1.5,15.9 0.1,31.3 -4,45.9c-2.3,8 -5.1,14.5 -7.3,19.7c-2.3,5.3 -4.4,10.3 -3.3,11.4c0,0 0,0 0,0c0.4,0.4 2.4,1.2 10.5,-3.5c5.7,-3.3 12.8,-8.3 19.6,-13.1c16,-11.3 34.9,-27.5 56.1,-48.2c3.5,-3.4 7.2,-7 10.6,-10.5l2.1,2.1c-3.4,3.4 -7.1,7.1 -10.6,10.5c-21.4,20.8 -40.4,37.1 -56.5,48.5c-18.1,12.8 -29.5,20.3 -33.8,16.4c-0.1,0.1 -0.1,0.1 -0.1,0z" fill="#FFFFFF" id="svg_3"/>
   <path class="st1" d="m178.04287,202.64283l32.4,-58.1c3.3,-5.9 6.8,-11.6 10.7,-17l36.1,-51.4c0.2,-0.3 -0.1,-0.6 -0.4,-0.4l-51.4,36.1c-5.5,3.9 -11.2,7.4 -17,10.7l-58.1,32.4c-0.3,0.2 -0.1,0.6 0.2,0.5l37.9,-10.2l2.1,2.1l-6.2,1.7l1.5,5.7l-3.5,2.1l1.4,1.4l-2.8,2.7l5.5,5.5l5.5,5.5l2.8,-2.7l1.4,1.4l2.1,-3.5l5.7,1.5l1.7,-6.2l2.1,2.1l-10.2,37.9c-0.2,0.3 0.3,0.5 0.5,0.2z" fill="#FFFFFF" id="svg_4"/>
  </g>
  <g id="Text_Vorlage" class="st2" display="none">
   <g class="st3" display="inline" opacity="0.43" id="svg_5">
    <text x="-17.04465" y="6.67035" transform="matrix(-0.4008 -0.9162 0.9162 -0.4008 55.6665 191.361)" class="st1 st4 st5" fill="#FFFFFF" font-family="'Barlow-Bold'" font-size="32px" id="svg_6">C</text>
    <text x="-15.39992" y="9.89387" transform="matrix(-0.2127 -0.9771 0.9771 -0.2127 47.4861 172.872)" class="st1 st4 st5" fill="#FFFFFF" font-family="'Barlow-Bold'" font-size="32px" id="svg_7">O</text>
    <text x="0" y="0" transform="matrix(-0.01265 -0.9999 0.9999 -0.01265 56.0941 165.766)" class="st1 st4 st6" fill="#FFFFFF" font-family="'Barlow-Bold'" font-size="32.0001px" id="svg_8">S</text>
    <text x="-10.27593" y="15.14795" transform="matrix(0.1882 -0.9821 0.9821 0.1882 42.8924 133.374)" class="st1 st4 st6" fill="#FFFFFF" font-family="'Barlow-Bold'" font-size="32.0001px" id="svg_9">M</text>
    <text x="-7.49797" y="16.69803" transform="matrix(0.3554 -0.9347 0.9347 0.3554 47.9315 110.695)" class="st1 st4 st5" fill="#FFFFFF" font-family="'Barlow-Bold'" font-size="32px" id="svg_10">I</text>
    <text x="-4.98119" y="17.6122" transform="matrix(0.488 -0.8729 0.8729 0.488 50.7473 102.146)" class="st1 st4 st5" fill="#FFFFFF" font-family="'Barlow-Bold'" font-size="32px" id="svg_11">C</text>
    <text x="-2.39711" y="18.14676" transform="matrix(0.6084 -0.7936 0.7936 0.6084 60.9524 84.8223)" class="st1 st4 st6" fill="#FFFFFF" font-family="'Barlow-Bold'" font-size="32.0001px" id="svg_12"/>
    <text x="-0.21871" y="18.30281" transform="matrix(0.6986 -0.7155 0.7155 0.6986 64.9826 79.0476)" class="st1 st4 st5" fill="#FFFFFF" font-family="'Barlow-Bold'" font-size="32px" id="svg_13">C</text>
    <text x="3.69518" y="17.92703" transform="matrix(0.8353 -0.5498 0.5498 0.8353 79.0321 64.5929)" class="st1 st4 st6" fill="#FFFFFF" font-family="'Barlow-Bold'" font-size="32.0001px" id="svg_14">O</text>
    <text x="7.08655" y="16.87692" transform="matrix(0.9257 -0.3782 0.3782 0.9257 95.7199 53.701)" class="st1 st4 st6" fill="#FFFFFF" font-family="'Barlow-Bold'" font-size="32.0001px" id="svg_15">A</text>
    <text x="10.6529" y="14.88554" transform="matrix(0.9865 -0.1635 0.1635 0.9865 115.978 45.59)" class="st1 st4 st5" fill="#FFFFFF" font-family="'Barlow-Bold'" font-size="32px" id="svg_16">S</text>
    <text x="13.42468" y="12.44181" transform="matrix(0.9993 0.03797 -0.03797 0.9993 135.423 42.2896)" class="st1 st4 st6" fill="#FFFFFF" font-family="'Barlow-Bold'" font-size="32.0001px" id="svg_17">T</text>
    <text x="15.39994" y="9.89383" transform="matrix(0.9771 0.2127 -0.2127 0.9771 154.698 43.0014)" class="st1 st4 st5" fill="#FFFFFF" font-family="'Barlow-Bold'" font-size="32px" id="svg_18">E</text>
    <text x="17.04467" y="6.6703" transform="matrix(0.9162 0.4008 -0.4008 0.9162 173.511 47.2331)" class="st1 st4 st5" fill="#FFFFFF" font-family="'Barlow-Bold'" font-size="32px" id="svg_19">R</text>
    <text x="18.08417" y="2.82935" transform="matrix(0.8079 0.5893 -0.5893 0.8079 192.145 55.3913)" class="st1 st4 st6" fill="#FFFFFF" font-family="'Barlow-Bold'" font-size="32.0001px" id="svg_20">S</text>
    <text x="17.35085" y="5.83105" transform="matrix(0.8955 0.445 -0.445 0.8955 85.6596 240.397)" class="st1 st7 st8" fill="#FFFFFF" font-family="'Barlow-Medium'" font-size="17.3334px" id="svg_21">P</text>
    <text x="16.69803" y="7.49797" transform="matrix(0.9347 0.3554 -0.3554 0.9347 96.7226 245.786)" class="st1 st7 st9" fill="#FFFFFF" font-family="'Barlow-Medium'" font-size="17.3333px" id="svg_22">O</text>
    <text x="15.39994" y="9.89383" transform="matrix(0.9771 0.2127 -0.2127 0.9771 108.287 250.523)" class="st1 st7 st8" fill="#FFFFFF" font-family="'Barlow-Medium'" font-size="17.3334px" id="svg_23">W</text>
    <text x="0" y="0" transform="matrix(0.9961 0.08845 -0.08845 0.9961 137.948 267.025)" class="st1 st7 st9" fill="#FFFFFF" font-family="'Barlow-Medium'" font-size="17.3333px" id="svg_24">E</text>
    <text x="0" y="0" transform="matrix(0.9999 -0.01265 0.01265 0.9999 149.893 268.254)" class="st1 st7 st8" fill="#FFFFFF" font-family="'Barlow-Medium'" font-size="17.3334px" id="svg_25">R</text>
    <text x="11.38903" y="14.32977" transform="matrix(0.9935 -0.1136 0.1136 0.9935 149.34 255.136)" class="st1 st7 st8" fill="#FFFFFF" font-family="'Barlow-Medium'" font-size="17.3334px" id="svg_26">E</text>
    <text x="9.89387" y="15.39992" transform="matrix(0.9771 -0.2127 0.2127 0.9771 161.326 253.663)" class="st1 st7 st8" fill="#FFFFFF" font-family="'Barlow-Medium'" font-size="17.3334px" id="svg_27">D</text>
    <text x="8.7157" y="16.09565" transform="matrix(0.9585 -0.2851 0.2851 0.9585 173.381 250.881)" class="st1 st7 st8" fill="#FFFFFF" font-family="'Barlow-Medium'" font-size="17.3334px" id="svg_28"/>
    <text x="7.08655" y="16.87692" transform="matrix(0.9257 -0.3782 0.3782 0.9257 178.407 249.507)" class="st1 st7 st8" fill="#FFFFFF" font-family="'Barlow-Medium'" font-size="17.3334px" id="svg_29">B</text>
    <text x="5.4064" y="17.48756" transform="matrix(0.8844 -0.4667 0.4667 0.8844 189.882 244.869)" class="st1 st7 st8" fill="#FFFFFF" font-family="'Barlow-Medium'" font-size="17.3334px" id="svg_30">Y</text>
    <text x="4.12627" y="17.83295" transform="matrix(0.8483 -0.5295 0.5295 0.8483 200.303 239.327)" class="st1 st7 st9" fill="#FFFFFF" font-family="'Barlow-Medium'" font-size="17.3333px" id="svg_31"/>
    <text x="2.8294" y="18.08417" transform="matrix(0.8079 -0.5893 0.5893 0.8079 204.702 236.587)" class="st1 st7 st9" fill="#FFFFFF" font-family="'Barlow-Medium'" font-size="17.3333px" id="svg_32">F</text>
    <text x="0.65365" y="18.29243" transform="matrix(0.7319 -0.6814 0.6814 0.7319 214.27 229.7)" class="st1 st7 st9" fill="#FFFFFF" font-family="'Barlow-Medium'" font-size="17.3333px" id="svg_33">H</text>
    <text x="-0.6536" y="18.29243" transform="matrix(0.6814 -0.7319 0.7319 0.6814 223.647 220.805)" class="st1 st7 st9" fill="#FFFFFF" font-family="'Barlow-Medium'" font-size="17.3333px" id="svg_34"/>
    <text x="-1.96075" y="18.19831" transform="matrix(0.6273 -0.7788 0.7788 0.6273 227.224 217.111)" class="st1 st7 st8" fill="#FFFFFF" font-family="'Barlow-Medium'" font-size="17.3334px" id="svg_35">C</text>
    <text x="-4.12623" y="17.83297" transform="matrix(0.5295 -0.8483 0.8483 0.5295 234.947 207.582)" class="st1 st7 st9" fill="#FFFFFF" font-family="'Barlow-Medium'" font-size="17.3333px" id="svg_36">A</text>
    <text x="-6.25118" y="17.20311" transform="matrix(0.4231 -0.9061 0.9061 0.4231 241.748 196.773)" class="st1 st7 st9" fill="#FFFFFF" font-family="'Barlow-Medium'" font-size="17.3333px" id="svg_37">M</text>
    <text x="-7.90819" y="16.5076" transform="matrix(0.3322 -0.9432 0.9432 0.3322 247.615 184.19)" class="st1 st7 st8" fill="#FFFFFF" font-family="'Barlow-Medium'" font-size="17.3334px" id="svg_38">P</text>
    <text x="-9.89383" y="15.39994" transform="matrix(0.2127 -0.9771 0.9771 0.2127 251.54 172.643)" class="st1 st7 st8" fill="#FFFFFF" font-family="'Barlow-Medium'" font-size="17.3334px" id="svg_39">U</text>
    <text x="-11.389" y="14.3298" transform="matrix(0.1136 -0.9935 0.9935 0.1136 254.298 160.048)" class="st1 st7 st8" fill="#FFFFFF" font-family="'Barlow-Medium'" font-size="17.3334px" id="svg_40">S</text>
    <text x="-12.44181" y="13.42468" transform="matrix(0.03797 -0.9993 0.9993 0.03797 255.482 148.19)" class="st1 st7 st9" fill="#FFFFFF" font-family="'Barlow-Medium'" font-size="17.3333px" id="svg_41"/>
    <text x="-13.73552" y="12.09829" transform="matrix(-0.06325 -0.998 0.998 -0.06325 255.989 142.956)" class="st1 st7 st8" fill="#FFFFFF" font-family="'Barlow-Medium'" font-size="17.3334px" id="svg_42">W</text>
    <text x="-14.88554" y="10.6529" transform="matrix(-0.1635 -0.9865 0.9865 -0.1635 254.543 126.05)" class="st1 st7 st8" fill="#FFFFFF" font-family="'Barlow-Medium'" font-size="17.3334px" id="svg_43">I</text>
    <text x="-15.64227" y="9.50498" transform="matrix(-0.2371 -0.9715 0.9715 -0.2371 253.653 119.959)" class="st1 st7 st8" fill="#FFFFFF" font-family="'Barlow-Medium'" font-size="17.3334px" id="svg_44">E</text>
    <text x="-16.50758" y="7.90824" transform="matrix(-0.3322 -0.9432 0.9432 -0.3322 250.74 108.337)" class="st1 st7 st8" fill="#FFFFFF" font-family="'Barlow-Medium'" font-size="17.3334px" id="svg_45">N</text>
   </g>
  </g>
  <g id="Text_groß">
   <g id="svg_46">
    <path class="st1" d="m67.24287,198.74283c-0.1,1.4 -0.5,2.6 -1.3,3.7c-0.8,1.1 -1.8,1.9 -3.2,2.5l-7.3,3.3c-1.4,0.6 -2.7,0.9 -4,0.7c-1.3,-0.1 -2.5,-0.6 -3.6,-1.5c-1.1,-0.9 -1.9,-2 -2.6,-3.5c-0.7,-1.4 -1,-2.9 -0.9,-4.2c0,-1.4 0.4,-2.6 1.2,-3.6s1.7,-1.9 3.1,-2.5c0.2,-0.1 0.4,0 0.6,0.3l1.3,2.4l0.1,0.1c0.1,0.2 0.1,0.4 0,0.4l-0.2,0.1c-1.2,0.5 -1.9,1.3 -2.3,2.3c-0.4,1 -0.3,2.1 0.2,3.3s1.3,2 2.4,2.4c1,0.4 2.1,0.3 3.3,-0.2l7.5,-3.4c1.1,-0.5 1.9,-1.3 2.3,-2.3c0.4,-1 0.3,-2.2 -0.2,-3.4c-0.5,-1.2 -1.3,-2 -2.3,-2.4c-1,-0.4 -2.1,-0.3 -3.3,0.2c-0.1,0 -0.2,0 -0.3,0c-0.1,-0.1 -0.2,-0.2 -0.2,-0.3l-1,-2.5c-0.1,-0.3 -0.1,-0.5 -0.1,-0.5l0.1,-0.1c1.3,-0.6 2.6,-0.8 3.9,-0.7c1.3,0.2 2.5,0.7 3.5,1.5s1.9,2 2.6,3.5c0.5,1.6 0.8,3 0.7,4.4z" fill="#FFFFFF" id="svg_47"/>
    <path class="st1" d="m60.14287,179.84283c-0.4,1.4 -1.1,2.5 -2.1,3.4c-1,0.9 -2.3,1.5 -3.8,1.9l-7.2,1.6c-1.5,0.3 -2.9,0.3 -4.2,-0.1c-1.3,-0.4 -2.4,-1.2 -3.3,-2.2c-0.9,-1.1 -1.5,-2.4 -1.9,-4c-0.3,-1.6 -0.3,-3.1 0,-4.4c0.4,-1.3 1.1,-2.5 2.1,-3.4s2.3,-1.6 3.8,-1.9l7.2,-1.6c1.5,-0.3 3,-0.3 4.3,0.1c1.3,0.4 2.4,1.2 3.3,2.2c0.9,1.1 1.5,2.4 1.9,4c0.3,1.6 0.2,3.1 -0.1,4.4zm-5.1,-6.6c-1,-0.6 -2.2,-0.8 -3.5,-0.5l-7.3,1.6c-1.4,0.3 -2.4,0.9 -3,1.9c-0.6,1 -0.8,2.1 -0.5,3.4c0.3,1.3 0.9,2.3 1.9,2.9c1,0.6 2.2,0.8 3.5,0.5l7.3,-1.6c1.3,-0.3 2.3,-0.9 3,-1.9c0.6,-1 0.8,-2.1 0.5,-3.4c-0.2,-1.3 -0.9,-2.3 -1.9,-2.9z" fill="#FFFFFF" id="svg_48"/>
    <path class="st1" d="m57.14287,159.94283c-0.5,1.2 -1.3,2.2 -2.2,2.9c-1,0.7 -2.1,1 -3.4,1.1l-0.7,0c-0.3,0 -0.5,-0.2 -0.5,-0.5l0,-2.6c0,-0.3 0.2,-0.5 0.5,-0.5l0.5,0c1,0 1.8,-0.5 2.4,-1.3c0.6,-0.9 1,-2 0.9,-3.5c0,-1.3 -0.3,-2.3 -0.9,-3c-0.6,-0.7 -1.3,-1 -2.2,-1c-0.6,0 -1.1,0.2 -1.5,0.6c-0.4,0.4 -0.8,0.9 -1.1,1.6c-0.3,0.7 -0.7,1.7 -1.2,3.1c-0.5,1.5 -1,2.8 -1.5,3.7c-0.5,1 -1.1,1.8 -2,2.4c-0.8,0.6 -1.9,1 -3.2,1c-1.9,0 -3.4,-0.6 -4.5,-2s-1.7,-3.2 -1.7,-5.5c0,-1.6 0.2,-3 0.8,-4.3c0.5,-1.2 1.3,-2.2 2.3,-2.9c1,-0.7 2.1,-1.1 3.4,-1.1l0.4,0c0.3,0 0.5,0.2 0.5,0.5l0,2.6c0,0.2 0,0.3 -0.1,0.4c-0.1,0.1 -0.2,0.1 -0.3,0.1l-0.4,0c-1,0 -1.9,0.4 -2.5,1.3c-0.7,0.8 -1,2 -1,3.4c0,1.2 0.3,2.1 0.8,2.7c0.5,0.6 1.2,1 2.1,0.9c0.6,0 1.2,-0.2 1.6,-0.5c0.4,-0.3 0.8,-0.9 1.1,-1.6c0.3,-0.7 0.7,-1.8 1.2,-3.2c0.6,-1.5 1.1,-2.8 1.5,-3.7c0.5,-0.9 1.1,-1.7 1.9,-2.4c0.8,-0.7 1.9,-1 3.2,-1c1.2,0 2.4,0.3 3.3,0.9c1,0.6 1.7,1.5 2.3,2.7c0.5,1.2 0.8,2.6 0.9,4.2c0,1.8 -0.2,3.3 -0.7,4.5z" fill="#FFFFFF" id="svg_49"/>
    <path class="st1" d="m57.34287,142.94283l-21.1,-4.5c-0.3,-0.1 -0.5,-0.3 -0.4,-0.6l0.6,-2.7c0.1,-0.3 0.2,-0.5 0.5,-0.6l9,-3.2c0.1,0 0.1,-0.1 0.1,-0.1s0,-0.1 -0.1,-0.1l-6.9,-6.7c-0.2,-0.2 -0.3,-0.4 -0.2,-0.7l0.6,-2.6c0.1,-0.3 0.3,-0.5 0.6,-0.4l21.1,4.5c0.3,0.1 0.5,0.3 0.4,0.6l-0.6,2.6c-0.1,0.3 -0.3,0.5 -0.6,0.4l-14.9,-3.2c-0.1,0 -0.1,0 -0.2,0c0,0 0,0.1 0.1,0.2l5.3,5.1c0.2,0.2 0.3,0.4 0.2,0.7l-0.3,1.2c-0.1,0.3 -0.2,0.5 -0.5,0.6l-7,2.4c-0.1,0 -0.1,0.1 -0.1,0.1c0,0.1 0.1,0.1 0.1,0.1l14.9,3.2c0.3,0.1 0.5,0.3 0.4,0.6l-0.6,2.6c0.1,0.5 -0.1,0.6 -0.4,0.5z" fill="#FFFFFF" id="svg_50"/>
    <path class="st1" d="m63.44287,119.94283l-20,-8.1c-0.3,-0.1 -0.4,-0.4 -0.3,-0.7l1,-2.5c0.1,-0.3 0.4,-0.4 0.7,-0.3l20,8.1c0.3,0.1 0.4,0.4 0.3,0.7l-1,2.5c-0.2,0.3 -0.4,0.4 -0.7,0.3z" fill="#FFFFFF" id="svg_51"/>
    <path class="st1" d="m68.54287,108.14283c-1.2,0.7 -2.4,1.1 -3.7,1.1c-1.3,0 -2.6,-0.4 -3.9,-1.2l-6.9,-4.1c-1.3,-0.8 -2.3,-1.7 -2.9,-2.9c-0.6,-1.2 -0.9,-2.4 -0.8,-3.8c0.1,-1.4 0.6,-2.7 1.4,-4.1c0.8,-1.4 1.8,-2.4 2.9,-3.2c1.1,-0.7 2.4,-1.1 3.6,-1.1c1.3,0 2.5,0.4 3.8,1.1c0.2,0.1 0.2,0.3 0.1,0.6l-1.2,2.4l-0.1,0.1c-0.1,0.2 -0.2,0.3 -0.3,0.2l-0.2,-0.1c-1.1,-0.7 -2.2,-0.8 -3.2,-0.6c-1.1,0.3 -1.9,1 -2.6,2.1s-0.9,2.2 -0.6,3.3c0.3,1.1 0.9,1.9 2,2.6l7,4.4c1.1,0.6 2.1,0.8 3.2,0.5c1.1,-0.3 1.9,-1 2.6,-2.1c0.7,-1.1 0.9,-2.2 0.6,-3.3c-0.3,-1.1 -0.9,-1.9 -2,-2.6c-0.1,-0.1 -0.1,-0.1 -0.2,-0.3s0,-0.2 0.1,-0.4l1.5,-2.3c0.2,-0.3 0.3,-0.4 0.4,-0.4l0.1,0.1c1.3,0.8 2.2,1.7 2.8,2.8c0.6,1.1 0.9,2.4 0.7,3.8c-0.1,1.4 -0.6,2.7 -1.4,4.1c-0.6,1.5 -1.6,2.6 -2.8,3.3z" fill="#FFFFFF" id="svg_52"/>
    <path class="st1" d="m85.14287,85.74283c-1.3,0.4 -2.6,0.4 -3.9,0c-1.3,-0.4 -2.4,-1.1 -3.4,-2.2l-5.4,-5.8c-1,-1.1 -1.7,-2.3 -2,-3.6c-0.3,-1.3 -0.2,-2.6 0.3,-3.9c0.5,-1.3 1.3,-2.5 2.5,-3.6c1.2,-1.1 2.4,-1.8 3.7,-2.2c1.3,-0.4 2.6,-0.4 3.8,-0.1c1.2,0.4 2.3,1.1 3.3,2.1c0.1,0.2 0.1,0.4 -0.1,0.6l-1.9,2l-0.1,0.1c-0.2,0.2 -0.3,0.2 -0.4,0.1l-0.1,-0.1c-0.9,-0.9 -1.8,-1.4 -2.9,-1.4c-1.1,0 -2.1,0.4 -3.1,1.3c-1,0.9 -1.5,1.9 -1.5,3c-0.1,1.1 0.3,2.1 1.2,3.1l5.6,6c0.8,0.9 1.8,1.4 2.9,1.4c1.1,0 2.1,-0.4 3.1,-1.3c1,-0.9 1.5,-1.9 1.5,-3c0.1,-1.1 -0.3,-2.1 -1.2,-3c-0.1,-0.1 -0.1,-0.2 -0.1,-0.3c0,-0.1 0.1,-0.2 0.2,-0.3l2.1,-1.7c0.3,-0.2 0.4,-0.3 0.5,-0.2l0.1,0.1c1,1.1 1.6,2.2 1.9,3.5c0.3,1.3 0.2,2.5 -0.3,3.8c-0.5,1.3 -1.3,2.5 -2.5,3.5c-1.2,1 -2.4,1.8 -3.8,2.1z" fill="#FFFFFF" id="svg_53"/>
    <path class="st1" d="m100.74287,73.04283c-1.4,0.1 -2.7,-0.2 -3.9,-0.9c-1.2,-0.7 -2.2,-1.7 -3,-3l-3.8,-6.3c-0.8,-1.3 -1.2,-2.7 -1.2,-4.1c0,-1.4 0.3,-2.7 1,-3.9c0.7,-1.2 1.8,-2.2 3.2,-3c1.4,-0.8 2.8,-1.3 4.2,-1.4c1.4,-0.1 2.7,0.2 3.9,0.9c1.2,0.7 2.2,1.7 3,3l3.8,6.3c0.8,1.3 1.2,2.7 1.3,4.1c0,1.4 -0.3,2.7 -1,3.9c-0.7,1.2 -1.8,2.2 -3.2,3.1c-1.5,0.8 -2.9,1.2 -4.3,1.3zm4.7,-6.9c0.3,-1.1 0,-2.3 -0.7,-3.5l-3.9,-6.4c-0.7,-1.2 -1.6,-1.9 -2.8,-2.2c-1.1,-0.3 -2.3,-0.1 -3.4,0.6c-1.1,0.7 -1.8,1.6 -2.1,2.7c-0.3,1.1 0,2.3 0.7,3.5l3.9,6.4c0.7,1.2 1.6,1.9 2.8,2.2c1.1,0.3 2.3,0.1 3.4,-0.6c1.1,-0.6 1.8,-1.6 2.1,-2.7z" fill="#FFFFFF" id="svg_54"/>
    <path class="st1" d="m128.14287,60.64283l-2,-2.8c-0.1,-0.1 -0.1,-0.1 -0.3,-0.1l-8,2.7c-0.1,0 -0.2,0.1 -0.2,0.2l0.1,3.5c0,0.3 -0.1,0.5 -0.4,0.6l-2.8,1c-0.2,0.1 -0.3,0 -0.4,0s-0.2,-0.2 -0.2,-0.4l-0.5,-22.6c0,-0.3 0.1,-0.5 0.4,-0.6l3.6,-1.2c0.3,-0.1 0.5,0 0.7,0.2l13.6,18.1c0,0 0.1,0.1 0.1,0.2c0.1,0.2 0,0.4 -0.3,0.5l-2.8,1c-0.2,0 -0.4,0 -0.6,-0.3zm-10.3,-3.2l6.2,-2.1c0.1,0 0.1,-0.1 0.1,-0.3l-6.7,-9.3c0,-0.1 -0.1,-0.1 -0.1,-0.1c-0.1,0 -0.1,0.1 -0.1,0.2l0.4,11.4c0,0.2 0.1,0.2 0.2,0.2z" fill="#FFFFFF" id="svg_55"/>
    <path class="st1" d="m139.04287,58.14283c-1.3,-0.4 -2.3,-1 -3.1,-1.9c-0.8,-0.9 -1.2,-2 -1.4,-3.3l-0.1,-0.7c0,-0.3 0.1,-0.5 0.5,-0.6l2.6,-0.3c0.3,0 0.5,0.1 0.6,0.4l0.1,0.5c0.1,1 0.6,1.7 1.6,2.3c0.9,0.6 2.1,0.7 3.6,0.6c1.3,-0.2 2.3,-0.5 2.8,-1.2s0.8,-1.4 0.7,-2.3c-0.1,-0.6 -0.3,-1.1 -0.7,-1.5c-0.4,-0.4 -1,-0.7 -1.7,-1c-0.7,-0.3 -1.8,-0.6 -3.2,-0.9c-1.6,-0.4 -2.9,-0.8 -3.9,-1.1c-1,-0.4 -1.9,-1 -2.6,-1.7c-0.7,-0.8 -1.2,-1.8 -1.3,-3c-0.2,-1.9 0.3,-3.4 1.5,-4.7c1.2,-1.2 3,-2 5.3,-2.3c1.6,-0.2 3,-0.1 4.3,0.3c1.3,0.4 2.3,1.1 3.1,2c0.8,0.9 1.3,2 1.4,3.3l0,0.4c0,0.3 -0.1,0.5 -0.5,0.6l-2.6,0.3c-0.1,0 -0.3,0 -0.4,-0.1c-0.1,-0.1 -0.2,-0.1 -0.2,-0.3l0,-0.4c-0.1,-1 -0.6,-1.8 -1.5,-2.4c-0.9,-0.6 -2.1,-0.8 -3.5,-0.6c-1.2,0.1 -2.1,0.5 -2.7,1.1c-0.6,0.6 -0.8,1.3 -0.7,2.2c0.1,0.6 0.3,1.1 0.7,1.5c0.4,0.4 0.9,0.7 1.7,0.9c0.7,0.3 1.8,0.5 3.3,0.9c1.6,0.4 2.9,0.8 3.8,1.1c1,0.4 1.8,0.9 2.6,1.7c0.7,0.8 1.2,1.8 1.3,3c0.1,1.2 0,2.4 -0.6,3.4c-0.5,1 -1.4,1.9 -2.5,2.5c-1.1,0.7 -2.5,1.1 -4.1,1.3c-1.4,0.5 -2.9,0.4 -4.2,0z" fill="#FFFFFF" id="svg_56"/>
    <path class="st1" d="m171.04287,36.34283l-0.2,2.2c0,0.3 -0.2,0.5 -0.6,0.5l-5.8,-0.4c-0.1,0 -0.2,0.1 -0.2,0.2l-1.3,18.6c0,0.3 -0.2,0.5 -0.6,0.5l-2.7,-0.2c-0.3,0 -0.5,-0.2 -0.5,-0.5l1.3,-18.6c0,-0.1 -0.1,-0.2 -0.2,-0.2l-5.5,-0.4c-0.3,0 -0.5,-0.2 -0.5,-0.5l0.2,-2.2c0,-0.3 0.2,-0.5 0.5,-0.5l15.4,1c0.6,0 0.7,0.2 0.7,0.5z" fill="#FFFFFF" id="svg_57"/>
    <path class="st1" d="m191.34287,43.84283l-10.5,-2.7c-0.1,0 -0.2,0 -0.2,0.1l-1.5,5.8c0,0.1 0,0.2 0.1,0.2l7,1.8c0.3,0.1 0.5,0.3 0.4,0.6l-0.5,2.1c-0.1,0.3 -0.3,0.5 -0.6,0.4l-7,-1.8c-0.1,0 -0.2,0 -0.2,0.1l-1.5,6c0,0.1 0,0.2 0.1,0.2l10.5,2.7c0.3,0.1 0.5,0.3 0.4,0.6l-0.6,2.1c-0.1,0.3 -0.3,0.5 -0.6,0.4l-13.8,-3.6c-0.3,-0.1 -0.5,-0.3 -0.4,-0.6l5.4,-20.8c0.1,-0.3 0.3,-0.5 0.6,-0.4l13.8,3.6c0.3,0.1 0.5,0.3 0.4,0.6l-0.5,2.1c-0.3,0.5 -0.5,0.6 -0.8,0.5z" fill="#FFFFFF" id="svg_58"/>
    <path class="st1" d="m201.84287,69.24283l0.3,-10.1c0,-0.1 0,-0.2 -0.1,-0.2l-3.4,-1.7c-0.1,-0.1 -0.2,0 -0.3,0.1l-4,8.1c-0.2,0.3 -0.4,0.4 -0.7,0.2l-2.4,-1.2c-0.3,-0.2 -0.4,-0.4 -0.2,-0.7l9.5,-19.4c0.2,-0.3 0.4,-0.4 0.7,-0.2l7.8,3.9c1.2,0.6 2.1,1.3 2.8,2.3c0.7,0.9 1,2 1.1,3.1s-0.2,2.3 -0.8,3.5c-0.7,1.3 -1.6,2.3 -2.7,2.9s-2.4,0.8 -3.8,0.5c-0.1,0 -0.1,0 -0.2,0c0,0 -0.1,0.1 0,0.1l-0.1,10.2l-0.1,0.3c-0.1,0.2 -0.3,0.3 -0.6,0.1l-2.5,-1.3c-0.2,-0.1 -0.4,-0.3 -0.3,-0.5zm0.7,-20.6l-2.8,5.7c-0.1,0.1 0,0.2 0.1,0.3l4.3,2.1c0.9,0.5 1.8,0.5 2.6,0.3c0.8,-0.3 1.5,-0.8 1.9,-1.7c0.4,-0.9 0.5,-1.8 0.2,-2.6c-0.3,-0.8 -0.9,-1.5 -1.8,-2l-4.3,-2.1c-0.1,-0.2 -0.1,-0.1 -0.2,0z" fill="#FFFFFF" id="svg_59"/>
    <path class="st1" d="m211.34287,75.04283c-0.6,-1.2 -0.9,-2.4 -0.9,-3.5c0.1,-1.2 0.5,-2.3 1.3,-3.3l0.4,-0.5c0.2,-0.3 0.5,-0.3 0.7,-0.1l2.1,1.6c0.3,0.2 0.3,0.4 0.1,0.7l-0.3,0.4c-0.6,0.8 -0.8,1.7 -0.5,2.7c0.3,1.1 1,2 2.1,2.9c1,0.8 2,1.2 2.9,1.2c0.9,0 1.6,-0.4 2.1,-1.1c0.4,-0.5 0.5,-1 0.5,-1.5c0,-0.6 -0.2,-1.2 -0.5,-1.9c-0.3,-0.7 -0.9,-1.7 -1.6,-2.9c-0.9,-1.4 -1.5,-2.6 -2,-3.5c-0.4,-1 -0.7,-2 -0.6,-3s0.4,-2.1 1.2,-3.1c1.2,-1.5 2.6,-2.2 4.4,-2.3c1.8,0 3.5,0.7 5.4,2.1c1.3,1 2.2,2.1 2.9,3.3c0.6,1.2 0.9,2.4 0.8,3.6c-0.1,1.2 -0.5,2.3 -1.3,3.4l-0.3,0.3c-0.2,0.3 -0.5,0.3 -0.7,0.1l-2.1,-1.6c-0.1,-0.1 -0.2,-0.2 -0.2,-0.3c0,-0.1 0,-0.2 0.1,-0.3l0.2,-0.3c0.6,-0.8 0.8,-1.7 0.6,-2.8c-0.2,-1.1 -0.9,-2 -2.1,-2.9c-0.9,-0.7 -1.8,-1.1 -2.6,-1.1s-1.5,0.3 -2.1,1c-0.4,0.5 -0.6,1 -0.6,1.6c0,0.5 0.2,1.1 0.5,1.8c0.3,0.7 0.9,1.7 1.7,3c0.8,1.4 1.5,2.6 1.9,3.5c0.4,0.9 0.6,1.9 0.6,3c0,1.1 -0.4,2.1 -1.2,3.1c-0.8,1 -1.7,1.7 -2.8,2c-1.1,0.4 -2.3,0.4 -3.6,0.1c-1.3,-0.3 -2.6,-1 -3.8,-2c-1.1,-1.1 -2.1,-2.2 -2.7,-3.4z" fill="#FFFFFF" id="svg_60"/>
   </g>
  </g>
  <g id="Text_klein">
   <g id="svg_61">
    <path class="st1" d="m107.84287,243.74283c0.3,0.5 0.5,1.1 0.5,1.7s-0.2,1.2 -0.5,1.8c-0.3,0.6 -0.8,1.1 -1.3,1.4s-1.1,0.5 -1.7,0.4c-0.6,0 -1.3,-0.2 -1.9,-0.6l-2.3,-1.3c-0.1,0 -0.1,0 -0.1,0l-2.2,3.9c-0.1,0.2 -0.2,0.2 -0.4,0.1l-1.2,-0.7c-0.2,-0.1 -0.2,-0.2 -0.1,-0.4l5.6,-9.8c0.1,-0.2 0.2,-0.2 0.4,-0.1l4,2.2c0.4,0.4 0.8,0.9 1.2,1.4zm-2.9,3.5c0.5,-0.1 0.8,-0.4 1.1,-0.9c0.3,-0.5 0.3,-1 0.2,-1.4c-0.1,-0.5 -0.4,-0.9 -0.9,-1.1l-2.2,-1.2c-0.1,0 -0.1,0 -0.1,0l-1.7,3.1c0,0.1 0,0.1 0,0.1l2.2,1.2c0.4,0.2 0.9,0.3 1.4,0.2z" fill="#FFFFFF" id="svg_62"/>
    <path class="st1" d="m109.14287,256.64283c-0.5,-0.6 -0.7,-1.2 -0.8,-1.9c-0.1,-0.7 0,-1.5 0.4,-2.2l1.5,-3.5c0.3,-0.7 0.8,-1.3 1.3,-1.8s1.2,-0.7 2,-0.8s1.5,0.1 2.3,0.4c0.8,0.3 1.4,0.8 1.9,1.4c0.5,0.6 0.7,1.2 0.8,1.9c0.1,0.7 0,1.4 -0.3,2.2l-1.5,3.5c-0.3,0.8 -0.8,1.4 -1.3,1.8c-0.6,0.4 -1.2,0.7 -2,0.8c-0.7,0.1 -1.5,-0.1 -2.3,-0.4c-0.9,-0.4 -1.5,-0.8 -2,-1.4zm4.4,-0.1c0.6,-0.2 1,-0.7 1.3,-1.4l1.5,-3.6c0.3,-0.7 0.3,-1.3 0.1,-1.9c-0.2,-0.6 -0.7,-1 -1.3,-1.3c-0.6,-0.3 -1.2,-0.3 -1.8,-0.1c-0.6,0.2 -1,0.7 -1.3,1.4l-1.5,3.6c-0.3,0.7 -0.3,1.3 -0.1,1.9c0.2,0.6 0.7,1 1.3,1.3c0.6,0.3 1.2,0.3 1.8,0.1z" fill="#FFFFFF" id="svg_63"/>
    <path class="st1" d="m121.44287,261.44283l0,-11.7c0,0 0,-0.1 0,-0.1c0,-0.1 0.1,-0.1 0.1,-0.1c0.1,0 0.1,0 0.2,0l1.5,0.4c0.2,0 0.2,0.1 0.2,0.3l-0.2,7.8c0,0 0,0.1 0,0.1s0.1,0 0.1,0l3.7,-6.9c0.1,-0.1 0.2,-0.2 0.3,-0.2l1.5,0.4c0.2,0 0.2,0.1 0.2,0.3l-0.1,7.8c0,0 0,0.1 0,0.1c0,0 0.1,0 0.1,0l3.8,-6.8c0.1,-0.1 0.2,-0.2 0.3,-0.2l1.4,0.4c0.1,0 0.1,0.1 0.2,0.1c0,0.1 0,0.1 0,0.2l-5.7,10.1c-0.1,0.1 -0.2,0.2 -0.4,0.1l-1.4,-0.4c-0.2,0 -0.2,-0.1 -0.2,-0.3l0.2,-8.2c0,0 0,-0.1 0,-0.1c0,0 -0.1,0 -0.1,0l-3.9,7.2c-0.1,0.1 -0.2,0.2 -0.3,0.2l-1.3,-0.4c-0.1,0.2 -0.2,0.1 -0.2,-0.1z" fill="#FFFFFF" id="svg_64"/>
    <path class="st1" d="m144.94287,256.14283l-5.6,-0.8c-0.1,0 -0.1,0 -0.1,0.1l-0.4,3.1c0,0.1 0,0.1 0.1,0.1l3.8,0.5c0.2,0 0.3,0.1 0.2,0.3l-0.2,1.1c0,0.2 -0.1,0.3 -0.3,0.2l-3.8,-0.5c-0.1,0 -0.1,0 -0.1,0.1l-0.4,3.2c0,0.1 0,0.1 0.1,0.1l5.6,0.8c0.2,0 0.3,0.1 0.2,0.3l-0.1,1.2c0,0.2 -0.1,0.3 -0.3,0.2l-7.4,-1c-0.2,0 -0.3,-0.1 -0.2,-0.3l1.5,-11.2c0,-0.2 0.1,-0.3 0.3,-0.2l7.4,1c0.2,0 0.3,0.1 0.2,0.3l-0.2,1.1c0,0.2 -0.1,0.3 -0.3,0.3z" fill="#FFFFFF" id="svg_65"/>
    <path class="st1" d="m154.34287,266.44283l-2.1,-4.9c0,0 0,-0.1 -0.1,-0.1l-2,0c-0.1,0 -0.1,0 -0.1,0.1l-0.1,4.7c0,0.2 -0.1,0.3 -0.3,0.3l-1.4,0c-0.2,0 -0.3,-0.1 -0.3,-0.3l0.3,-11.3c0,-0.2 0.1,-0.3 0.3,-0.3l4.6,0.1c0.7,0 1.3,0.2 1.8,0.5s0.9,0.7 1.2,1.2c0.3,0.5 0.4,1.1 0.4,1.8c0,0.8 -0.2,1.4 -0.6,2c-0.4,0.5 -1,0.9 -1.7,1.1c0,0 -0.1,0 -0.1,0.1c0,0 0,0.1 0,0.1l2.2,4.9l0,0.1c0,0.1 -0.1,0.2 -0.2,0.2l-1.5,0c-0.1,-0.1 -0.2,-0.1 -0.3,-0.3zm-4.1,-9.9l-0.1,3.3c0,0.1 0,0.1 0.1,0.1l2.5,0.1c0.5,0 1,-0.1 1.3,-0.4c0.3,-0.3 0.5,-0.7 0.5,-1.2c0,-0.5 -0.1,-1 -0.5,-1.3c-0.3,-0.3 -0.8,-0.5 -1.3,-0.5l-2.5,-0.1c0,-0.1 0,-0.1 0,0z" fill="#FFFFFF" id="svg_66"/>
    <path class="st1" d="m167.34287,255.84283l-5.7,0.5c-0.1,0 -0.1,0 -0.1,0.1l0.3,3.1c0,0.1 0,0.1 0.1,0.1l3.8,-0.3c0.2,0 0.3,0.1 0.3,0.2l0.1,1.1c0,0.2 -0.1,0.3 -0.2,0.3l-3.8,0.3c-0.1,0 -0.1,0 -0.1,0.1l0.3,3.2c0,0.1 0,0.1 0.1,0.1l5.7,-0.5c0.2,0 0.3,0.1 0.3,0.2l0.1,1.1c0,0.2 -0.1,0.3 -0.2,0.3l-7.4,0.6c-0.2,0 -0.3,-0.1 -0.3,-0.2l-0.9,-11.2c0,-0.2 0.1,-0.3 0.2,-0.3l7.4,-0.6c0.2,0 0.3,0.1 0.3,0.2l0.1,1.1c-0.2,0.4 -0.2,0.4 -0.4,0.5z" fill="#FFFFFF" id="svg_67"/>
    <path class="st1" d="m172.54287,265.04283l-2.2,-11.1c0,-0.2 0,-0.3 0.2,-0.3l4,-0.8c0.8,-0.2 1.5,-0.2 2.2,0c0.7,0.2 1.2,0.5 1.6,0.9c0.4,0.4 0.7,1 0.8,1.7l0.9,4.8c0.1,0.7 0.1,1.3 -0.1,1.9s-0.6,1.1 -1.2,1.5c-0.5,0.4 -1.2,0.7 -2,0.8l-4,0.8c-0.1,0 -0.2,0 -0.2,-0.2zm1.7,-1.8l2.3,-0.5c0.6,-0.1 1,-0.4 1.3,-0.8c0.3,-0.4 0.4,-1 0.2,-1.6l-0.8,-4.2c-0.1,-0.6 -0.4,-1.1 -0.8,-1.4s-0.9,-0.4 -1.5,-0.3l-2.3,0.5c-0.1,0 -0.1,0.1 -0.1,0.1l1.6,8.1c0,0.1 0,0.1 0.1,0.1z" fill="#FFFFFF" id="svg_68"/>
    <path class="st1" d="m193.94287,253.04283c0,0 0,0 0,0c1.3,0.2 2.2,0.8 2.6,2.1c0.4,1 0.3,1.9 -0.2,2.7s-1.3,1.4 -2.3,1.8l-3.9,1.5c-0.2,0.1 -0.3,0 -0.3,-0.2l-3.9,-10.6c-0.1,-0.2 0,-0.3 0.2,-0.3l3.8,-1.4c1.2,-0.4 2.1,-0.5 2.9,-0.2c0.8,0.3 1.4,0.9 1.8,1.9c0.3,0.9 0.1,1.8 -0.7,2.7c0,0 -0.1,0 0,0zm-5.7,-2.1l1.1,2.9c0,0.1 0.1,0.1 0.1,0.1l2.1,-0.8c0.6,-0.2 1,-0.5 1.2,-0.9c0.2,-0.4 0.2,-0.8 0.1,-1.3c-0.2,-0.5 -0.5,-0.8 -0.9,-1s-0.9,-0.1 -1.5,0.1l-2.1,0.8c-0.1,0 -0.2,0.1 -0.1,0.1zm6.4,6.1c0.2,-0.4 0.2,-0.9 0,-1.4c-0.2,-0.5 -0.5,-0.9 -0.9,-1c-0.4,-0.2 -0.9,-0.1 -1.5,0.1l-2.2,0.8c-0.1,0 -0.1,0.1 -0.1,0.1l1.2,3.1c0,0.1 0.1,0.1 0.1,0.1l2.2,-0.8c0.6,-0.3 0.9,-0.6 1.2,-1z" fill="#FFFFFF" id="svg_69"/>
    <path class="st1" d="m203.74287,255.04283l-2,-4c0,0 0,-0.1 -0.1,-0.1l-6,-4.4c-0.1,0 -0.1,-0.1 -0.1,-0.1c-0.1,-0.1 0,-0.2 0.1,-0.3l1.4,-0.7c0.1,-0.1 0.3,-0.1 0.4,0l4.2,3.1c0,0 0.1,0 0.1,0c0,0 0,0 0,-0.1l0,-5.2c0,-0.2 0.1,-0.3 0.2,-0.3l1.4,-0.7c0.1,-0.1 0.2,-0.1 0.3,0c0,0 0,0.1 0,0.2l-0.1,7.5c0,0.1 0,0.1 0,0.1l2,4c0.1,0.2 0,0.3 -0.1,0.4l-1.3,0.6c-0.2,0.2 -0.3,0.1 -0.4,0z" fill="#FFFFFF" id="svg_70"/>
    <path class="st1" d="m217.04287,235.34283l-4.6,3.3c-0.1,0 -0.1,0.1 0,0.1l1.8,2.5c0,0.1 0.1,0.1 0.1,0l3.1,-2.2c0.1,-0.1 0.3,-0.1 0.4,0.1l0.7,0.9c0.1,0.1 0.1,0.3 -0.1,0.4l-3.1,2.2c-0.1,0 -0.1,0.1 0,0.1l2.8,3.9c0.1,0.1 0.1,0.3 -0.1,0.4l-1.2,0.8c-0.1,0.1 -0.3,0.1 -0.4,-0.1l-6.5,-9.2c-0.1,-0.1 -0.1,-0.3 0.1,-0.4l6.1,-4.3c0.1,-0.1 0.3,-0.1 0.4,0.1l0.7,0.9c-0.1,0.2 -0.1,0.4 -0.2,0.5z" fill="#FFFFFF" id="svg_71"/>
    <path class="st1" d="m223.24287,227.64283l1.1,-0.9c0.1,-0.1 0.3,-0.1 0.4,0l7.5,8.4c0.1,0.1 0.1,0.3 0,0.4l-1.1,0.9c-0.1,0.1 -0.3,0.1 -0.4,0l-3.2,-3.5c0,0 -0.1,-0.1 -0.1,0l-3.2,2.8c-0.1,0 -0.1,0.1 0,0.1l3.2,3.5c0.1,0.1 0.1,0.3 0,0.4l-1.1,0.9c-0.1,0.1 -0.3,0.1 -0.4,0l-7.5,-8.4c-0.1,-0.1 -0.1,-0.3 0,-0.4l1.1,-0.9c0.1,-0.1 0.3,-0.1 0.4,0l3.1,3.5c0,0 0.1,0.1 0.1,0l3.2,-2.8c0.1,0 0.1,-0.1 0,-0.1l-3.1,-3.5c-0.1,-0.1 -0.1,-0.2 0,-0.4z" fill="#FFFFFF" id="svg_72"/>
    <path class="st1" d="m239.94287,226.74283c-0.7,0.3 -1.3,0.4 -2,0.3c-0.7,-0.1 -1.3,-0.4 -1.9,-0.9l-3.2,-2.6c-0.6,-0.5 -1,-1.1 -1.3,-1.7c-0.2,-0.6 -0.3,-1.3 -0.1,-2c0.2,-0.7 0.5,-1.4 1,-2c0.5,-0.6 1.1,-1.1 1.8,-1.4c0.6,-0.3 1.3,-0.4 2,-0.3c0.7,0.1 1.3,0.4 1.9,0.9c0.1,0.1 0.1,0.2 0,0.3l-0.8,1.2l0,0.1c-0.1,0.1 -0.1,0.1 -0.2,0.1l-0.1,-0.1c-0.5,-0.4 -1.1,-0.6 -1.6,-0.5c-0.6,0.1 -1.1,0.4 -1.5,0.9c-0.4,0.5 -0.6,1.1 -0.6,1.7c0.1,0.6 0.3,1.1 0.9,1.5l3.3,2.7c0.5,0.4 1,0.6 1.6,0.5c0.6,-0.1 1.1,-0.4 1.5,-0.9c0.4,-0.5 0.6,-1.1 0.6,-1.7c0,-0.6 -0.3,-1.1 -0.8,-1.5c0,0 -0.1,-0.1 -0.1,-0.1c0,-0.1 0,-0.1 0.1,-0.2l0.9,-1.1c0.1,-0.1 0.2,-0.2 0.2,-0.2l0.1,0.1c0.6,0.5 1,1 1.2,1.7c0.2,0.6 0.3,1.3 0.1,2s-0.5,1.4 -1,2c-0.8,0.4 -1.4,0.9 -2,1.2z" fill="#FFFFFF" id="svg_73"/>
    <path class="st1" d="m250.34287,212.44283l-1.7,-0.5c-0.1,0 -0.1,0 -0.1,0.1l-2.4,3.7c0,0.1 0,0.1 0,0.1l1.2,1.4c0.1,0.1 0.1,0.2 0,0.4l-0.8,1.3c0,0.1 -0.1,0.1 -0.2,0.1c-0.1,0 -0.1,0 -0.2,-0.1l-7.6,-9.1c-0.1,-0.1 -0.1,-0.2 0,-0.4l1.1,-1.7c0.1,-0.1 0.2,-0.2 0.3,-0.1l11.5,3c0,0 0.1,0 0.1,0c0.1,0.1 0.1,0.2 0,0.3l-0.8,1.3c-0.1,0.2 -0.2,0.3 -0.4,0.2zm-5.3,2.1l1.9,-2.9c0,-0.1 0,-0.1 -0.1,-0.1l-5.8,-1.6c0,0 -0.1,0 -0.1,0s0,0.1 0,0.1l3.9,4.6c0.1,-0.1 0.2,-0.1 0.2,-0.1z" fill="#FFFFFF" id="svg_74"/>
    <path class="st1" d="m253.44287,207.14283l-10.2,-4.9c-0.2,-0.1 -0.2,-0.2 -0.1,-0.4l0.6,-1.3c0.1,-0.1 0.2,-0.2 0.3,-0.2l5,-0.5c0,0 0.1,0 0.1,0c0,0 0,-0.1 0,-0.1l-2.7,-4.2c-0.1,-0.1 -0.1,-0.2 0,-0.4l0.6,-1.3c0.1,-0.2 0.2,-0.2 0.4,-0.1l10.2,4.9c0.2,0.1 0.2,0.2 0.1,0.4l-0.6,1.3c-0.1,0.2 -0.2,0.2 -0.4,0.1l-7.2,-3.5c0,0 -0.1,0 -0.1,0s0,0.1 0,0.1l2.1,3.2c0.1,0.1 0.1,0.2 0,0.4l-0.3,0.6c-0.1,0.1 -0.2,0.2 -0.3,0.2l-3.8,0.4c0,0 -0.1,0 -0.1,0s0,0.1 0.1,0.1l7.2,3.4c0.2,0.1 0.2,0.2 0.1,0.4l-0.6,1.3c-0.1,0.1 -0.2,0.2 -0.4,0.1z" fill="#FFFFFF" id="svg_75"/>
    <path class="st1" d="m250.84287,184.34283c0.5,-0.4 1,-0.7 1.6,-0.8s1.2,-0.1 1.9,0.2c0.7,0.2 1.2,0.6 1.6,1c0.4,0.5 0.7,1 0.7,1.6s0,1.3 -0.2,2l-0.9,2.5c0,0.1 0,0.1 0.1,0.1l4.2,1.4c0.2,0.1 0.2,0.2 0.2,0.3l-0.5,1.3c-0.1,0.2 -0.2,0.2 -0.3,0.2l-10.7,-3.6c-0.2,-0.1 -0.2,-0.2 -0.2,-0.3l1.5,-4.3c0.2,-0.6 0.5,-1.2 1,-1.6zm4,2.2c-0.2,-0.4 -0.6,-0.7 -1.1,-0.9c-0.5,-0.2 -1,-0.2 -1.5,0.1c-0.4,0.2 -0.8,0.6 -0.9,1.1l-0.8,2.4c0,0.1 0,0.1 0.1,0.1l3.3,1.1c0.1,0 0.1,0 0.1,-0.1l0.8,-2.4c0.2,-0.5 0.2,-1 0,-1.4z" fill="#FFFFFF" id="svg_76"/>
    <path class="st1" d="m263.34287,180.54283c-0.5,0.6 -1,0.9 -1.7,1.2c-0.7,0.2 -1.4,0.2 -2.2,0.1l-7.5,-1.6c-0.2,0 -0.2,-0.1 -0.2,-0.3l0.3,-1.4c0,-0.2 0.1,-0.2 0.3,-0.2l7.6,1.6c0.6,0.1 1.2,0.1 1.7,-0.3s0.8,-0.8 1,-1.5c0.1,-0.7 0.1,-1.3 -0.3,-1.8s-0.8,-0.8 -1.5,-1l-7.6,-1.6c-0.2,0 -0.2,-0.1 -0.2,-0.3l0.3,-1.4c0,-0.2 0.1,-0.2 0.3,-0.2l7.5,1.6c0.8,0.2 1.4,0.5 1.9,1c0.5,0.5 0.9,1.1 1,1.7c0.2,0.7 0.2,1.5 0,2.3c0,0.8 -0.3,1.5 -0.7,2.1z" fill="#FFFFFF" id="svg_77"/>
    <path class="st1" d="m265.54287,168.24283c-0.3,0.6 -0.8,1.1 -1.3,1.4s-1.2,0.4 -1.8,0.3l-0.4,0c-0.2,0 -0.3,-0.1 -0.2,-0.3l0.1,-1.4c0,-0.2 0.1,-0.3 0.3,-0.2l0.3,0c0.5,0.1 1,-0.1 1.4,-0.6c0.4,-0.4 0.6,-1 0.7,-1.8c0.1,-0.7 0,-1.2 -0.3,-1.6c-0.3,-0.4 -0.6,-0.6 -1.1,-0.6c-0.3,0 -0.6,0 -0.8,0.2c-0.2,0.2 -0.5,0.4 -0.7,0.8c-0.2,0.3 -0.5,0.8 -0.8,1.5c-0.4,0.8 -0.7,1.4 -1,1.8c-0.3,0.5 -0.7,0.8 -1.2,1.1c-0.5,0.3 -1,0.4 -1.7,0.3c-1,-0.1 -1.7,-0.5 -2.2,-1.3c-0.5,-0.8 -0.7,-1.8 -0.6,-3c0.1,-0.8 0.3,-1.6 0.7,-2.2c0.4,-0.6 0.8,-1.1 1.4,-1.4c0.6,-0.3 1.2,-0.4 1.9,-0.4l0.2,0c0.2,0 0.3,0.1 0.2,0.3l-0.1,1.4c0,0.1 0,0.1 -0.1,0.2c0,0 -0.1,0.1 -0.2,0.1l-0.2,0c-0.5,-0.1 -1,0.1 -1.4,0.5c-0.4,0.4 -0.7,1 -0.7,1.7c-0.1,0.6 0,1.1 0.2,1.5c0.2,0.4 0.6,0.6 1,0.6c0.3,0 0.6,0 0.9,-0.2c0.2,-0.2 0.5,-0.4 0.7,-0.7c0.2,-0.3 0.5,-0.9 0.8,-1.6c0.4,-0.8 0.7,-1.4 1,-1.8c0.3,-0.5 0.7,-0.8 1.2,-1.1s1,-0.4 1.7,-0.3c0.7,0.1 1.2,0.3 1.7,0.7c0.5,0.4 0.8,0.9 1,1.6c0.2,0.7 0.3,1.4 0.2,2.3c-0.2,0.8 -0.4,1.5 -0.8,2.2z" fill="#FFFFFF" id="svg_78"/>
    <path class="st1" d="m266.34287,150.14283l-11,3.9c0,0 0,0 -0.1,0c-0.1,0 -0.1,0 -0.2,-0.1s-0.1,-0.1 -0.1,-0.2l-0.1,-1.5c0,-0.2 0.1,-0.3 0.2,-0.3l7.4,-2.5c0,0 0.1,0 0.1,-0.1c0,0 0,-0.1 -0.1,-0.1l-7.7,-1.2c-0.2,0 -0.2,-0.1 -0.3,-0.3l-0.1,-1.5c0,-0.2 0.1,-0.3 0.2,-0.3l7.4,-2.5c0,0 0.1,0 0.1,-0.1c0,0 0,-0.1 -0.1,-0.1l-7.7,-1.3c-0.2,0 -0.2,-0.1 -0.3,-0.3l-0.1,-1.4c0,-0.1 0,-0.2 0.1,-0.2c0.1,0 0.1,-0.1 0.2,0l11.5,2c0.2,0 0.2,0.1 0.3,0.3l0.1,1.5c0,0.2 -0.1,0.3 -0.2,0.3l-7.8,2.5c0,0 -0.1,0 -0.1,0.1c0,0 0,0.1 0.1,0.1l8.1,1.3c0.2,0 0.2,0.1 0.3,0.3l0.1,1.4c0.1,0.2 0,0.3 -0.2,0.3z" fill="#FFFFFF" id="svg_79"/>
    <path class="st1" d="m264.74287,135.54283l-11.1,2c-0.2,0 -0.3,0 -0.3,-0.2l-0.3,-1.4c0,-0.2 0,-0.3 0.2,-0.3l11.1,-2c0.2,0 0.3,0 0.3,0.2l0.3,1.4c0,0.1 0,0.2 -0.2,0.3z" fill="#FFFFFF" id="svg_80"/>
    <path class="st1" d="m252.04287,124.44283l1.5,5.5c0,0.1 0.1,0.1 0.1,0.1l3,-0.8c0.1,0 0.1,-0.1 0.1,-0.1l-1,-3.7c0,-0.2 0,-0.3 0.2,-0.3l1.1,-0.3c0.2,0 0.3,0 0.3,0.2l1,3.7c0,0.1 0.1,0.1 0.1,0.1l3.1,-0.8c0.1,0 0.1,-0.1 0.1,-0.1l-1.5,-5.5c0,-0.2 0,-0.3 0.2,-0.3l1.1,-0.3c0.2,0 0.3,0 0.3,0.2l1.9,7.2c0,0.2 0,0.3 -0.2,0.3l-10.9,2.9c-0.2,0 -0.3,0 -0.3,-0.2l-1.9,-7.2c0,-0.2 0,-0.3 0.2,-0.3l1.1,-0.3c0.2,-0.2 0.3,-0.2 0.4,0z" fill="#FFFFFF" id="svg_81"/>
    <path class="st1" d="m260.14287,117.64283l-10.5,4.2c-0.2,0.1 -0.3,0 -0.4,-0.2l-0.5,-1.3c-0.1,-0.1 0,-0.3 0,-0.4l5.5,-7.2c0,0 0,-0.1 0,-0.1c0,0 -0.1,0 -0.1,0l-7.1,2.8c-0.2,0.1 -0.3,0 -0.4,-0.2l-0.5,-1.3c-0.1,-0.2 0,-0.3 0.2,-0.4l10.5,-4.2c0.2,-0.1 0.3,0 0.4,0.2l0.5,1.3c0.1,0.1 0,0.3 0,0.4l-5.5,7.3c0,0 0,0.1 0,0.1c0,0 0.1,0 0.1,0l7.1,-2.8c0.2,-0.1 0.3,0 0.4,0.2l0.5,1.3c0.1,0.1 0,0.3 -0.2,0.3z" fill="#FFFFFF" id="svg_82"/>
   </g>
  </g>
 </g>
</svg>